<svg width="32" height="32" viewBox="0 0 32 32" fill="none" xmlns="http://www.w3.org/2000/svg">
<path d="M16 32C24.8366 32 32 24.8366 32 16C32 7.16344 24.8366 0 16 0C7.16344 0 0 7.16344 0 16C0 24.8366 7.16344 32 16 32Z" fill="#F0F0F0"/>
<path d="M31.9999 15.9999C31.9999 9.12049 27.6579 3.2558 21.5651 0.995117V31.0048C27.6579 28.7441 31.9999 22.8794 31.9999 15.9999Z" fill="#D80027"/>
<path d="M0 15.9999C0 22.8794 4.34206 28.7441 10.4348 31.0047V0.995117C4.34206 3.2558 0 9.12049 0 15.9999Z" fill="#0052B4"/>
<path d="M31 16C31 24.2843 24.2843 31 16 31C7.71573 31 1 24.2843 1 16C1 7.71573 7.71573 1 16 1C24.2843 1 31 7.71573 31 16Z" stroke="white" stroke-width="2"/>
</svg>
