<svg width="32" height="32" viewBox="0 0 32 32" fill="none" xmlns="http://www.w3.org/2000/svg">
<path d="M16 32C24.8366 32 32 24.8366 32 16C32 7.16344 24.8366 0 16 0C7.16344 0 0 7.16344 0 16C0 24.8366 7.16344 32 16 32Z" fill="#F0F0F0"/>
<path d="M3.30752 6.25879C2.05071 7.89398 1.10302 9.77866 0.551208 11.8261H8.87483L3.30752 6.25879Z" fill="#0052B4"/>
<path d="M31.4488 11.8265C30.897 9.77915 29.9492 7.89446 28.6925 6.25928L23.1253 11.8265H31.4488Z" fill="#0052B4"/>
<path d="M0.551208 20.1738C1.10308 22.2212 2.05077 24.1059 3.30752 25.741L8.87465 20.1738H0.551208Z" fill="#0052B4"/>
<path d="M25.7411 3.30764C24.106 2.05083 22.2213 1.10314 20.1739 0.55127V8.87483L25.7411 3.30764Z" fill="#0052B4"/>
<path d="M6.25885 28.6926C7.89404 29.9494 9.77873 30.8971 11.8261 31.449V23.1255L6.25885 28.6926Z" fill="#0052B4"/>
<path d="M11.826 0.55127C9.77866 1.10314 7.89398 2.05083 6.25885 3.30758L11.826 8.87477V0.55127Z" fill="#0052B4"/>
<path d="M20.174 31.449C22.2213 30.8971 24.106 29.9494 25.7411 28.6927L20.174 23.1255V31.449Z" fill="#0052B4"/>
<path d="M23.1253 20.1743L28.6925 25.7416C29.9492 24.1064 30.897 22.2217 31.4488 20.1743H23.1253Z" fill="#0052B4"/>
<path d="M31.8646 13.9131H18.0871H18.087V0.135438C17.4038 0.0465 16.7073 0 16 0C15.2926 0 14.5962 0.0465 13.9131 0.135438V13.9129V13.913H0.135438C0.0465 14.5962 0 15.2927 0 16C0 16.7074 0.0465 17.4038 0.135438 18.0869H13.9129H13.913V31.8646C14.5962 31.9535 15.2926 32 16 32C16.7073 32 17.4038 31.9536 18.0869 31.8646V18.0871V18.087H31.8646C31.9535 17.4038 32 16.7074 32 16C32 15.2927 31.9535 14.5962 31.8646 13.9131Z" fill="#D80027"/>
<path d="M20.174 20.1739L27.3137 27.3136C27.6421 26.9854 27.9553 26.6422 28.2542 26.2865L22.1416 20.1738H20.174V20.1739Z" fill="#D80027"/>
<path d="M11.826 20.1738H11.8259L4.68622 27.3135C5.01447 27.6419 5.35766 27.9551 5.71341 28.254L11.826 22.1413V20.1738Z" fill="#D80027"/>
<path d="M11.826 11.826V11.8258L4.68629 4.68604C4.35791 5.01429 4.04466 5.35747 3.74579 5.71322L9.85848 11.8259H11.826V11.826Z" fill="#D80027"/>
<path d="M20.174 11.8264L27.3138 4.68653C26.9855 4.35816 26.6423 4.04491 26.2866 3.74609L20.174 9.85878V11.8264Z" fill="#D80027"/>
<path d="M31 16C31 24.2843 24.2843 31 16 31C7.71573 31 1 24.2843 1 16C1 7.71573 7.71573 1 16 1C24.2843 1 31 7.71573 31 16Z" stroke="white" stroke-width="2"/>
</svg>
