<svg width="32" height="32" viewBox="0 0 32 32" fill="none" xmlns="http://www.w3.org/2000/svg"><path d="M16 32c8.837 0 16-7.163 16-16S24.837 0 16 0 0 7.163 0 16s7.163 16 16 16z" fill="#F0F0F0"/><path d="M22.025 12.522h-4.017L16 9.044l-2.008 3.478H9.975L11.984 16 9.975 19.48h4.017L16 22.957l2.008-3.478h4.017L20.016 16l2.009-3.478zM18.467 16l-1.233 2.137h-2.468L13.534 16l1.234-2.136h2.467L18.467 16zM16 11.727l.46.795h-.919l.459-.795zm-3.7 2.137h.917l-.459.795-.459-.795zm0 4.273l.458-.795.46.795h-.919zm3.7 2.137l-.459-.795h.918l-.459.795zm3.7-2.137h-.917l.459-.795.459.795zm-.917-4.273h.918l-.46.795-.458-.795zM25.96 3.479H6.04a16.08 16.08 0 0 0-3.692 4.173h27.304A16.082 16.082 0 0 0 25.96 3.48zM6.04 28.522h19.92a16.081 16.081 0 0 0 3.692-4.174H2.348a16.085 16.085 0 0 0 3.692 4.174z" fill="#0052B4"/><path d="M31 16c0 8.284-6.716 15-15 15-8.284 0-15-6.716-15-15C1 7.716 7.716 1 16 1c8.284 0 15 6.716 15 15z" stroke="#fff" stroke-width="2"/></svg>