<svg width="32" height="32" viewBox="0 0 32 32" fill="none" xmlns="http://www.w3.org/2000/svg">
<path d="M16 32C24.8366 32 32 24.8366 32 16C32 7.16344 24.8366 0 16 0C7.16344 0 0 7.16344 0 16C0 24.8366 7.16344 32 16 32Z" fill="#338AF3"/>
<path d="M25.0435 16.1738H6.95654C6.95654 17.4225 8.04411 18.4347 9.29267 18.4347H9.21742C9.21742 19.6834 10.2296 20.6956 11.4783 20.6956C11.4783 21.9443 12.4905 22.9565 13.7392 22.9565H18.2609C19.5096 22.9565 20.5218 21.9443 20.5218 20.6956C21.7705 20.6956 22.7827 19.6834 22.7827 18.4347H22.7074C23.9559 18.4347 25.0435 17.4225 25.0435 16.1738Z" fill="#FFDA44"/>
<path d="M22.2609 13.2173C22.2609 16.675 19.4578 19.4782 16 19.4782C12.5422 19.4782 9.73914 16.675 9.73914 13.2173" fill="#338AF3"/>
<path d="M20.7821 13.2172L18.8281 14.1363L19.8686 16.0288L17.7468 15.6229L17.4779 17.7664L16 16.1898L14.522 17.7664L14.2531 15.6229L12.1313 16.0287L13.1718 14.1363L11.2178 13.2172L13.1718 12.298L12.1313 10.4056L14.2531 10.8115L14.522 8.66797L16 10.2445L17.478 8.66797L17.7468 10.8115L19.8687 10.4056L18.8281 12.2981L20.7821 13.2172Z" fill="#FFDA44"/>
<path d="M31 16C31 24.2843 24.2843 31 16 31C7.71573 31 1 24.2843 1 16C1 7.71573 7.71573 1 16 1C24.2843 1 31 7.71573 31 16Z" stroke="white" stroke-width="2"/>
</svg>
