<svg width="32" height="32" viewBox="0 0 32 32" fill="none" xmlns="http://www.w3.org/2000/svg"><path d="M16 32c8.837 0 16-7.163 16-16S24.837 0 16 0 0 7.163 0 16s7.163 16 16 16z" fill="#F0F0F0"/><path d="M31.005 21.565C31.648 19.832 32 17.957 32 16c0-1.957-.352-3.832-.995-5.565H.995A15.965 15.965 0 0 0 0 16c0 1.957.352 3.832.995 5.565L16 22.956l15.005-1.391z" fill="#0052B4"/><path d="M16 32c6.88 0 12.744-4.342 15.005-10.435H.995C3.255 27.658 9.121 32 16 32z" fill="#D80027"/><path d="M31 16c0 8.284-6.716 15-15 15-8.284 0-15-6.716-15-15C1 7.716 7.716 1 16 1c8.284 0 15 6.716 15 15z" stroke="#fff" stroke-width="2"/></svg>