<svg width="32" height="32" viewBox="0 0 32 32" fill="none" xmlns="http://www.w3.org/2000/svg">
<path d="M16 32C24.8366 32 32 24.8366 32 16C32 7.16344 24.8366 0 16 0C7.16344 0 0 7.16344 0 16C0 24.8366 7.16344 32 16 32Z" fill="#6DA544"/>
<path d="M9.04346 19.1304C9.04346 20.2829 9.97783 21.2173 11.1304 21.2173H17.3913C17.3913 22.1778 18.1699 22.9564 19.1304 22.9564H21.2173C22.1778 22.9564 22.9565 22.1778 22.9565 21.2173V19.1304H9.04346Z" fill="#F0F0F0"/>
<path d="M23.1303 9.04346V13.913C23.1303 14.6802 22.5062 15.3043 21.739 15.3043V17.3913C23.657 17.3913 25.2173 15.8309 25.2173 13.913V9.04346H23.1303Z" fill="#F0F0F0"/>
<path d="M8.17391 13.914C8.17391 14.6812 7.54978 15.3053 6.78259 15.3053V17.3922C8.70053 17.3922 10.2608 15.8319 10.2608 13.914V9.04443H8.17391V13.914Z" fill="#F0F0F0"/>
<path d="M22.0868 9.04346H19.9999V13.913H22.0868V9.04346Z" fill="#F0F0F0"/>
<path d="M16.8695 11.8261C16.8695 12.0179 16.7134 12.1739 16.5217 12.1739C16.3299 12.1739 16.1739 12.0178 16.1739 11.8261V9.04346H14.0869V11.8261C14.0869 12.0179 13.9309 12.1739 13.7391 12.1739C13.5474 12.1739 13.3913 12.0178 13.3913 11.8261V9.04346H11.3043V11.8261C11.3043 13.1686 12.3966 14.2609 13.7391 14.2609C14.2562 14.2609 14.7357 14.0984 15.1304 13.8224C15.5251 14.0983 16.0047 14.2609 16.5218 14.2609C16.6259 14.2609 16.7283 14.2536 16.8289 14.2408C16.6811 14.8501 16.1323 15.3043 15.4783 15.3043V17.3913C17.3962 17.3913 18.9565 15.8309 18.9565 13.913V11.8261V9.04346H16.8696V11.8261H16.8695Z" fill="#F0F0F0"/>
<path d="M14.4348 15.3047H11.3043V17.3916H14.4348V15.3047Z" fill="#F0F0F0"/>
<path d="M31 16C31 24.2843 24.2843 31 16 31C7.71573 31 1 24.2843 1 16C1 7.71573 7.71573 1 16 1C24.2843 1 31 7.71573 31 16Z" stroke="white" stroke-width="2"/>
</svg>
