<svg width="70" height="80" viewBox="0 0 70 80" fill="none" xmlns="http://www.w3.org/2000/svg">
<path d="M41.6344 45.0945V50.5686H36.1603C35.4725 50.5686 34.9089 51.1358 34.9089 51.8201V60.2365C34.9089 60.9238 35.4725 61.4879 36.1603 61.4879H41.6344V66.9634C41.6344 67.6516 42.1967 68.2143 42.8858 68.2143H51.2973C51.9869 68.2143 52.5487 67.6516 52.5487 66.9634V61.4879H58.0242C58.7124 61.4879 59.2756 60.9238 59.2756 60.2365V51.8201C59.2756 51.1358 58.7124 50.5686 58.0242 50.5686H52.5487V45.0945C52.5487 44.4 51.9869 43.8431 51.2973 43.8431H42.8854C42.1962 43.8431 41.6344 44.4 41.6344 45.0945ZM44.1363 51.8196V46.3455H50.0459V51.8196C50.0459 52.5136 50.6082 53.071 51.2969 53.071H56.7724V58.9851H51.2969C50.6082 58.9851 50.0459 59.5433 50.0459 60.236V65.7115H44.1363V60.236C44.1363 59.5433 43.5745 58.9851 42.8854 58.9851H37.4112V53.071H42.8858C43.5794 53.071 44.1363 52.5136 44.1363 51.8196ZM68.7027 41.5073C63.794 38.7946 58.2511 37.0756 52.446 36.4137V12.8254C52.446 12.1349 51.8873 11.574 51.1946 11.574H35.5556C34.8678 11.574 34.3037 12.1349 34.3037 12.8254V26.5891H19.9143C19.2269 26.5891 18.6629 27.1501 18.6629 27.8405V39.1014H4.27434C3.58611 39.1014 3.02248 39.6637 3.02248 40.3528V60.9988C3.02248 61.6889 3.58611 62.2503 4.27434 62.2503H19.9147H30.2167C33.996 69.6551 39.5594 75.7844 46.4614 79.8312C46.657 79.9486 46.8745 80 47.0951 80C47.314 80 47.5351 79.9486 47.7271 79.8312C60.0809 72.5831 68.1605 58.7015 69.3539 42.6944C69.3825 42.2058 69.1328 41.7391 68.7027 41.5073ZM18.6633 59.7474H5.52575V41.6042H18.6633V59.7474ZM36.8065 27.8405V14.0768H49.9436V36.189C49.0013 36.1363 48.0522 36.1055 47.0947 36.1055C43.5857 36.1055 40.1338 36.5066 36.8065 37.2627V27.8405ZM21.1657 59.7474V40.3533V29.0919H34.3037V37.5383V37.9045C31.2163 38.7888 28.2458 39.9866 25.4902 41.5069C25.0602 41.7409 24.8123 42.2054 24.8435 42.6989C25.2969 48.7701 26.7443 54.5323 29.0359 59.7474H21.1657ZM47.0947 77.2917C36.0156 70.4831 28.7112 57.8828 27.4049 43.3152C33.2801 40.2309 40.0704 38.6052 47.0947 38.6052C54.1222 38.6052 60.912 40.2255 66.7841 43.3152C65.4813 57.8828 58.1743 70.4867 47.0947 77.2917ZM36.9115 4.7399L2.06048 34.4218C1.826 34.6223 1.53749 34.7197 1.25032 34.7197C0.894816 34.7197 0.546458 34.5643 0.297248 34.2762C-0.150705 33.7479 -0.0841593 32.965 0.441504 32.5116L35.5765 2.58634C35.627 2.54257 35.6842 2.5314 35.732 2.50237H30.0301C29.3414 2.50237 28.7787 1.93651 28.7787 1.25096C28.7787 0.558266 29.3418 0 30.0301 0H38.1593C38.8516 0 39.4103 0.558266 39.4103 1.25141V9.37977C39.4103 10.0702 38.8516 10.6312 38.1593 10.6312C37.4733 10.6312 36.9088 10.0702 36.9088 9.37977V4.7399H36.9115Z" fill="#FF8B00"/>
</svg>
