<svg width="80" height="80" viewBox="0 0 80 80" fill="none" xmlns="http://www.w3.org/2000/svg">
<path d="M79.7526 51.2277C79.5027 50.8757 79.0976 50.6665 78.666 50.6663H66.6661V11.9999C66.6661 11.2636 66.0691 10.6666 65.3327 10.6666H61.3328V6.66662C61.3328 5.93029 60.7358 5.3333 59.9994 5.3333H27.9997C27.9997 2.38782 25.6118 0 22.6664 0C19.7209 0 17.3331 2.38782 17.3331 5.3333H13.3331C12.5968 5.3333 11.9998 5.93029 11.9998 6.66662V50.6663H1.33316C0.596829 50.6665 0 51.2635 0 51.9998C0 52.2245 0.056833 52.4455 0.165166 52.6423L14.8317 79.3088C15.0661 79.7348 15.5136 79.9995 15.9997 79.9995H69.3327C69.9035 80.0158 70.4152 79.6493 70.5834 79.1035H70.5914L79.9246 52.437C80.0661 52.0298 80.0022 51.5793 79.7526 51.2277ZM61.3328 61.3329V13.3332H63.9994V66.2036L61.3208 61.3329H61.3328ZM22.6664 2.66665C24.1392 2.66665 25.333 3.86047 25.333 5.3333H19.9997C19.9997 3.86047 21.1937 2.66665 22.6664 2.66665ZM14.6664 7.99995H25.333V11.9999C25.333 12.7362 24.736 13.3332 23.9997 13.3332C23.2633 13.3332 22.6664 12.7362 22.6664 11.9999V10.6666H19.9997V11.9999C19.9997 14.2091 21.7905 15.9999 23.9997 15.9999C26.2088 15.9999 27.9997 14.2091 27.9997 11.9999V7.99995H58.6661V56.5063L55.8341 51.357C55.5998 50.931 55.1523 50.6665 54.6661 50.6663H14.6664V7.99995ZM16.7877 77.3328L3.58781 53.333H53.8782L67.0781 77.3328H16.7877ZM69.0661 75.4062L66.6661 71.0515V53.333H76.786L69.0661 75.4062Z" fill="#FF8B00"/>
<path d="M66.6661 5.3333H63.9994V7.99995H66.6661C68.1389 7.99995 69.3327 9.19377 69.3327 10.6666V29.3331H71.9994V10.6666C71.9994 7.72112 69.6115 5.3333 66.6661 5.3333Z" fill="#FF8B00"/>
<path d="M71.9994 31.9998H69.3327V34.6664H71.9994V31.9998Z" fill="#FF8B00"/>
<path d="M9.33311 26.6665H6.66646V45.333H9.33311V26.6665Z" fill="#FF8B00"/>
<path d="M9.33311 21.3332H6.66646V23.9998H9.33311V21.3332Z" fill="#FF8B00"/>
<path d="M45.3329 17.3332H41.3329V13.3332C41.3329 12.5969 40.7359 11.9999 39.9996 11.9999H34.6663C33.9299 11.9999 33.333 12.5969 33.333 13.3332V17.3332H29.333C28.5966 17.3332 27.9997 17.9302 27.9997 18.6665V23.9998C27.9997 24.7362 28.5966 25.3332 29.333 25.3332H33.333V29.3331C33.333 30.0695 33.9299 30.6665 34.6663 30.6665H39.9996C40.7359 30.6665 41.3329 30.0695 41.3329 29.3331V25.3332H45.3329C46.0692 25.3332 46.6662 24.7362 46.6662 23.9998V18.6665C46.6662 17.9302 46.0692 17.3332 45.3329 17.3332ZM43.9995 22.6665H39.9996C39.2632 22.6665 38.6662 23.2635 38.6662 23.9998V27.9998H35.9996V23.9998C35.9996 23.2635 35.4026 22.6665 34.6663 22.6665H30.6663V19.9999H34.6663C35.4026 19.9999 35.9996 19.4029 35.9996 18.6665V14.6666H38.6662V18.6665C38.6662 19.4029 39.2632 19.9999 39.9996 19.9999H43.9995V22.6665Z" fill="#FF8B00"/>
<path d="M23.9997 33.3331H21.333V35.9998H23.9997V33.3331Z" fill="#FF8B00"/>
<path d="M54.6661 33.3331H26.6663V35.9998H54.6661V33.3331Z" fill="#FF8B00"/>
<path d="M54.6661 38.6664H18.6664V41.3331H54.6661V38.6664Z" fill="#FF8B00"/>
<path d="M49.3328 43.9997H18.6664V46.6664H49.3328V43.9997Z" fill="#FF8B00"/>
<path d="M55.8475 11.9999H53.1048V14.6666H55.8475V11.9999Z" fill="#FF8B00"/>
<path d="M55.9995 17.3332H53.3328V19.9999H55.9995V17.3332Z" fill="#FF8B00"/>
</svg>
