<svg width="80" height="80" viewBox="0 0 80 80" fill="none" xmlns="http://www.w3.org/2000/svg">
<path d="M30.8203 20.7233C30.8203 22.8314 31.1359 24.9109 31.7584 26.9049L33.9978 26.2054C33.446 24.4385 33.1665 22.594 33.1659 20.7233C33.1659 10.5896 41.4099 2.34558 51.5436 2.34558C55.3052 2.34558 58.9215 3.47412 62.0007 5.60913L63.3374 3.68103C59.8639 1.27319 55.7855 0 51.5436 0C40.1166 0 30.8203 9.29626 30.8203 20.7233Z" fill="#FF8B00"/>
<path d="M34.7797 28.2648L32.6404 29.2285C32.9791 29.9805 33.3679 30.7202 33.7952 31.4276L35.8032 30.2142C35.4242 29.5874 35.08 28.9313 34.7797 28.2648Z" fill="#FF8B00"/>
<path d="M65.293 8.52966L67.0477 6.97266C66.5002 6.35498 65.9094 5.76416 65.2911 5.21606L63.7341 6.97144C64.2828 7.45789 64.8071 7.98218 65.293 8.52966Z" fill="#FF8B00"/>
<path d="M51.5436 36.7548C60.3833 36.7548 67.5745 29.563 67.5745 20.7233C67.5745 11.8835 60.3833 4.69238 51.5436 4.69238C42.7039 4.69238 35.5121 11.8835 35.5121 20.7233C35.5121 29.563 42.7039 36.7548 51.5436 36.7548ZM51.5436 7.03796C59.0894 7.03796 65.2289 13.1775 65.2289 20.7233C65.2289 28.2697 59.0894 34.4086 51.5436 34.4086C43.9972 34.4086 37.8583 28.2697 37.8583 20.7233C37.8583 13.1775 43.9972 7.03796 51.5436 7.03796Z" fill="#FF8B00"/>
<path d="M49.0088 16.3208L54.1925 30.7721L58.5321 21.8964H62.8046V19.5502H57.0673L54.5251 24.751L49.386 10.4236L44.726 19.5502H40.2826V21.8964H46.1621L49.0088 16.3208Z" fill="#FF8B00"/>
<path d="M50.1617 66.134V80H52.5079V66.9568L57.5214 60.683L55.6891 59.2188L50.1617 66.134Z" fill="#FF8B00"/>
<path d="M57.7655 56.6205L57.1533 57.3859L58.9862 58.8507L59.5984 58.0847C62.1832 54.8499 64.231 51.2738 65.6848 47.4561L63.4924 46.6217C62.1252 50.2118 60.1984 53.5754 57.7655 56.6205Z" fill="#FF8B00"/>
<path d="M37.2369 2.35168L37.2003 0.00610352C25.7697 0.184326 15.5011 6.31531 10.4016 16.0071L12.478 17.0996C17.1771 8.16772 26.6644 2.51648 37.2369 2.35168Z" fill="#FF8B00"/>
<path d="M13.6597 66.3208C12.6501 65.368 11.7816 63.5095 11.6132 62.0355L17.2803 56.8561V54.4104L9.56909 52.2131V47.3456L3.8031 45.8215C2.94495 45.5945 2.34619 44.8163 2.34619 43.9282C2.34619 43.6243 2.41699 43.3295 2.55676 43.0518L9.5697 29.1217V28.8428C9.5697 25.4883 10.2264 22.2192 11.5216 19.1278L9.3573 18.2208C7.97791 21.5155 7.26074 24.9927 7.22473 28.5614L0.460815 41.9977C0.155029 42.605 0 43.255 0 43.9282C0 45.8801 1.31775 47.5909 3.20374 48.0896L7.22351 49.1516V53.9844L14.6344 56.0956L9.23767 61.0278V61.5448C9.23767 63.7274 10.4468 66.5137 12.0496 68.0267C13.6584 69.5447 15.7922 70.3815 18.0585 70.3815H20.6738V80H23.02V70.3815H37.1948V68.0353H18.0585C16.4178 68.0353 14.8145 67.4103 13.6597 66.3208Z" fill="#FF8B00"/>
<path d="M68.7964 42.9523L73.7726 37.9761L78.3191 42.522L79.978 40.863L69.7418 30.6287C71.3513 27.6843 72.2668 24.3085 72.2668 20.7233C72.2668 16.4795 70.993 12.3999 68.5822 8.92517L66.6547 10.2618C68.7915 13.3423 69.9207 16.9598 69.9207 20.7233C69.9207 30.8569 61.6766 39.101 51.5436 39.101C45.8466 39.101 40.5652 36.5228 37.0532 32.0282L35.2045 33.4723C39.1644 38.54 45.1196 41.4465 51.5436 41.4465C55.1288 41.4465 58.504 40.531 61.4484 38.9221L78.3191 55.7941L79.978 54.1351L68.7964 42.9523ZM63.4912 37.6465C65.4181 36.2823 67.1027 34.5978 68.4668 32.6709L72.1136 36.3171L67.1375 41.2933L63.4912 37.6465Z" fill="#FF8B00"/>
<path d="M23.078 63.3429H25.4242V65.6891H23.078V63.3429Z" fill="#FF8B00"/>
<path d="M27.7704 63.3429H34.0265V65.6891H27.7704V63.3429Z" fill="#FF8B00"/>
<path d="M22.7051 12.1399L21.2622 10.2899C19.4299 11.7188 17.8156 13.374 16.4636 15.21L18.3527 16.601C19.5776 14.9377 21.0419 13.4369 22.7051 12.1399Z" fill="#FF8B00"/>
<path d="M13.9648 19.455L16.0992 20.4279C16.4038 19.7595 16.7493 19.0967 17.1259 18.4576L15.105 17.2662C14.6869 17.9761 14.303 18.7122 13.9648 19.455Z" fill="#FF8B00"/>
</svg>
