<svg width="80" height="80" viewBox="0 0 80 80" fill="none" xmlns="http://www.w3.org/2000/svg">
<path d="M24.5159 65.8064H11.6127V50.3226C11.6127 49.6106 11.0349 49.0323 10.3224 49.0323H3.31568L11.4917 31.5134C11.5717 31.3432 11.6127 31.1561 11.6127 30.9677C11.6127 23.4514 16.9983 17.1755 24.1108 15.7794C21.9019 19.9275 20.6449 24.6579 20.6449 29.6774H23.2256C23.2256 14.7354 35.3803 2.58065 50.3224 2.58065V0C40.151 0 31.1609 5.14554 25.8113 12.9675C16.5459 13.6246 9.18325 21.2815 9.03456 30.676L0.121378 49.777C-0.0657435 50.177 -0.0348715 50.6439 0.202654 51.0156C0.438289 51.3886 0.849075 51.6129 1.2901 51.6129H9.03204V67.0968C9.03204 67.8093 9.61042 68.3871 10.3224 68.3871H23.2256V80H25.8062V67.0968C25.8062 66.3848 25.2285 65.8064 24.5159 65.8064Z" fill="#FF8B00"/>
<path d="M50.3223 12.9032C41.0734 12.9032 33.5481 20.4284 33.5481 29.6774C33.5481 38.9264 41.0734 46.4516 50.3223 46.4516C59.5713 46.4516 67.0965 38.9264 67.0965 29.6774C67.0965 20.4284 59.5713 12.9032 50.3223 12.9032ZM50.3223 38.7097C45.3419 38.7097 41.2901 34.6579 41.2901 29.6774C41.2901 24.6969 45.3419 20.6452 50.3223 20.6452C55.3028 20.6452 59.3546 24.6969 59.3546 29.6774C59.3546 34.6579 55.3028 38.7097 50.3223 38.7097ZM49.032 18.1408C46.796 18.3896 44.7534 19.2761 43.0826 20.613L41.246 18.7771C43.3969 16.9821 46.086 15.8165 49.032 15.5494V18.1408ZM57.5621 20.613C55.8913 19.2761 53.8487 18.3896 51.6127 18.1408V15.5494C54.5587 15.8165 57.2465 16.9834 59.3987 18.7771L57.5621 20.613ZM39.422 20.6011L41.258 22.4376C39.6671 24.4248 38.7094 26.9393 38.7094 29.6774C38.7094 32.4156 39.6671 34.9301 41.258 36.9172L39.422 38.7538C37.3687 36.2903 36.1288 33.1263 36.1288 29.6774C36.1288 26.2286 37.3687 23.0645 39.422 20.6011ZM41.246 40.5784L43.0826 38.7418C45.0697 40.3327 47.5842 41.2903 50.3223 41.2903C53.0605 41.2903 55.575 40.3327 57.5621 38.7418L59.3987 40.5784C56.9352 42.631 53.7712 43.871 50.3223 43.871C46.8735 43.871 43.7094 42.631 41.246 40.5784ZM61.2233 38.7538L59.3867 36.9172C60.9776 34.9301 61.9352 32.4156 61.9352 29.6774C61.9352 26.9393 60.9776 24.4248 59.3867 22.4376L61.2233 20.6011C63.276 23.0645 64.5159 26.2286 64.5159 29.6774C64.5159 33.1263 63.276 36.2903 61.2233 38.7538Z" fill="#FF8B00"/>
<path d="M50.3223 56.7742V59.3548C66.6864 59.3548 79.9998 46.0415 79.9998 29.6774H77.4191C77.4191 44.6195 65.2644 56.7742 50.3223 56.7742Z" fill="#FF8B00"/>
<path d="M78.7094 0H65.8062C65.2852 0 64.8139 0.31502 64.6142 0.796371C64.4138 1.27898 64.5247 1.83342 64.8939 2.20262L67.8526 5.16129L61.9264 11.0874C59.9185 9.82737 57.7587 8.91507 55.4836 8.36631V6.45161C55.4836 5.73967 54.9059 5.16129 54.1933 5.16129H46.4514C45.7394 5.16129 45.1611 5.73967 45.1611 6.45161V8.36505C42.8709 8.91633 40.7079 9.82485 38.7094 11.0786L37.0411 9.41028C36.5364 8.90562 35.7212 8.90562 35.2165 9.41028L30.0552 14.5716C29.5505 15.0762 29.5505 15.8915 30.0552 16.3962L31.7236 18.0645C30.471 20.063 29.5613 22.2259 29.01 24.5161H27.0965C26.3846 24.5161 25.8062 25.0945 25.8062 25.8064V33.5484C25.8062 34.261 26.3846 34.8387 27.0965 34.8387H29.0112C29.5613 37.1138 30.4736 39.2736 31.733 41.2815L25.8062 47.2077L22.8475 44.249C22.4771 43.8785 21.9239 43.7689 21.4413 43.9693C20.9599 44.169 20.6449 44.6402 20.6449 45.1613V58.0645C20.6449 58.7771 21.2233 59.3548 21.9352 59.3548H34.8385C35.3595 59.3548 35.8308 59.0398 36.0305 58.5585C36.2309 58.0759 36.12 57.5214 35.7508 57.1522L32.7921 54.1935L38.7183 48.2674C40.7275 49.5275 42.8847 50.4398 45.1611 50.9885V52.9032C45.1611 53.6158 45.7394 54.1935 46.4514 54.1935H46.5364L42.6951 62.694C42.6188 62.8616 42.5804 63.0425 42.5804 63.2258V80H45.1611V63.503L49.3678 54.1935H54.1933C54.9059 54.1935 55.4836 53.6158 55.4836 52.9032V50.9898C57.7738 50.4385 59.9368 49.5294 61.9352 48.2762L63.6036 49.9446C64.1083 50.4492 64.9235 50.4492 65.4282 49.9446L70.5895 44.7833C71.0941 44.2786 71.0941 43.4633 70.5895 42.9587L68.9211 41.2903C70.1743 39.2918 71.0834 37.1289 71.6347 34.8387H73.5481C74.2607 34.8387 74.8385 34.261 74.8385 33.5484V25.8064C74.8385 25.0945 74.2607 24.5161 73.5481 24.5161H71.6347C71.0847 22.2411 70.1724 20.0813 68.9136 18.0733L74.8385 12.1472L77.7971 15.1058C78.1663 15.4738 78.7195 15.5847 79.2034 15.3856C79.6847 15.1859 79.9998 14.7146 79.9998 14.1935V1.29032C79.9998 0.578377 79.422 0 78.7094 0ZM77.4191 11.0786L75.7508 9.41028C75.2461 8.90562 74.4308 8.90562 73.9262 9.41028L66.343 16.9934C65.902 17.4351 65.8396 18.13 66.1962 18.6429C67.7688 20.9022 68.8216 23.3921 69.325 26.0465C69.4397 26.657 69.9727 27.0968 70.592 27.0968H72.2578V32.2581H70.592C69.9727 32.2581 69.4397 32.6978 69.325 33.3071C68.8153 35.9848 67.7663 38.4785 66.2063 40.7201C65.8491 41.2324 65.9108 41.9292 66.3518 42.3702L67.8526 43.871L64.5159 47.2077L63.0151 45.7069C62.5741 45.2659 61.8785 45.2041 61.3651 45.5614C59.1253 47.1226 56.6309 48.1716 53.952 48.6801C53.344 48.7947 52.903 49.3277 52.903 49.9471V51.6129H47.7417V49.9471C47.7417 49.3277 47.3007 48.7947 46.6927 48.6801C44.0383 48.1767 41.5484 47.1239 39.2891 45.5513C38.7769 45.1947 38.0813 45.2571 37.6396 45.6981L30.0565 53.2812C29.5518 53.7859 29.5518 54.6012 30.0565 55.1058L31.7236 56.7742H23.2256V48.2762L24.8939 49.9446C25.3986 50.4492 26.2139 50.4492 26.7185 49.9446L34.3017 42.3614C34.7433 41.9197 34.8051 41.2248 34.4491 40.7126C32.8772 38.4545 31.8244 35.9627 31.3197 33.3083C31.205 32.6978 30.672 32.2581 30.0527 32.2581H28.3869V27.0968H30.0527C30.672 27.0968 31.205 26.6557 31.3197 26.0478C31.8281 23.3701 32.8772 20.8764 34.4384 18.6347C34.7956 18.1225 34.7339 17.4257 34.2929 16.9846L32.7921 15.4839L36.1288 12.1472L37.6296 13.6479C38.0706 14.089 38.7661 14.152 39.2796 13.7935C41.5213 12.2322 44.0137 11.1832 46.6927 10.6748C47.3007 10.5601 47.7417 10.0271 47.7417 9.40776V7.74194H52.903V9.40776C52.903 10.0271 53.344 10.5601 53.952 10.6748C56.6051 11.1782 59.0963 12.231 61.3562 13.8042C61.8697 14.1602 62.5647 14.0997 63.0051 13.6568L70.5882 6.07359C71.0929 5.56893 71.0929 4.75365 70.5882 4.24899L68.9211 2.58065H77.4191V11.0786Z" fill="#FF8B00"/>
</svg>
