<svg width="80" height="62" viewBox="0 0 80 62" fill="none" xmlns="http://www.w3.org/2000/svg">
<path d="M5.33333 45.3333C5.68696 45.3333 6.02609 45.1929 6.27614 44.9428C6.52619 44.6928 6.66667 44.3536 6.66667 44V4C6.66667 3.64638 6.80714 3.30724 7.05719 3.05719C7.30724 2.80714 7.64638 2.66667 8 2.66667H72C72.3536 2.66667 72.6928 2.80714 72.9428 3.05719C73.1929 3.30724 73.3333 3.64638 73.3333 4V44C73.3333 44.3536 73.4738 44.6928 73.7239 44.9428C73.9739 45.1929 74.313 45.3333 74.6667 45.3333C75.0203 45.3333 75.3594 45.1929 75.6095 44.9428C75.8595 44.6928 76 44.3536 76 44V4C76 2.93913 75.5786 1.92172 74.8284 1.17157C74.0783 0.421427 73.0609 0 72 0H8C6.93913 0 5.92172 0.421427 5.17157 1.17157C4.42143 1.92172 4 2.93913 4 4V44C4 44.3536 4.14048 44.6928 4.39052 44.9428C4.64057 45.1929 4.97971 45.3333 5.33333 45.3333Z" fill="#FF8B00"/>
<path d="M78.6667 48H1.33333C0.979711 48 0.640573 48.1405 0.390524 48.3905C0.140476 48.6406 0 48.9797 0 49.3333V54.6667C0 56.4348 0.702379 58.1305 1.95262 59.3807C3.20286 60.631 4.89856 61.3333 6.66667 61.3333H60C60.3536 61.3333 60.6928 61.1929 60.9428 60.9428C61.1929 60.6928 61.3333 60.3536 61.3333 60C61.3333 59.6464 61.1929 59.3072 60.9428 59.0572C60.6928 58.8071 60.3536 58.6667 60 58.6667H6.66667C5.6058 58.6667 4.58839 58.2452 3.83824 57.4951C3.08809 56.7449 2.66667 55.7275 2.66667 54.6667V50.6667H77.3333V54.6667C77.3333 55.7275 76.9119 56.7449 76.1618 57.4951C75.4116 58.2452 74.3942 58.6667 73.3333 58.6667H65.3333C64.9797 58.6667 64.6406 58.8071 64.3905 59.0572C64.1405 59.3072 64 59.6464 64 60C64 60.3536 64.1405 60.6928 64.3905 60.9428C64.6406 61.1929 64.9797 61.3333 65.3333 61.3333H73.3333C75.1014 61.3333 76.7971 60.631 78.0474 59.3807C79.2976 58.1305 80 56.4348 80 54.6667V49.3333C80 48.9797 79.8595 48.6406 79.6095 48.3905C79.3594 48.1405 79.0203 48 78.6667 48Z" fill="#FF8B00"/>
<path d="M37.3333 53.3333C36.9797 53.3333 36.6406 53.4738 36.3905 53.7239C36.1405 53.9739 36 54.313 36 54.6667C36 55.0203 36.1405 55.3594 36.3905 55.6095C36.6406 55.8595 36.9797 56 37.3333 56H42.6667C43.0203 56 43.3594 55.8595 43.6095 55.6095C43.8595 55.3594 44 55.0203 44 54.6667C44 54.313 43.8595 53.9739 43.6095 53.7239C43.3594 53.4738 43.0203 53.3333 42.6667 53.3333H37.3333Z" fill="#FF8B00"/>
<path d="M61.3333 56C62.0697 56 62.6667 55.403 62.6667 54.6667C62.6667 53.9303 62.0697 53.3333 61.3333 53.3333C60.597 53.3333 60 53.9303 60 54.6667C60 55.403 60.597 56 61.3333 56Z" fill="#FF8B00"/>
<path d="M66.6667 56C67.403 56 68 55.403 68 54.6667C68 53.9303 67.403 53.3333 66.6667 53.3333C65.9303 53.3333 65.3333 53.9303 65.3333 54.6667C65.3333 55.403 65.9303 56 66.6667 56Z" fill="#FF8B00"/>
<path d="M13.3333 56C14.0697 56 14.6667 55.403 14.6667 54.6667C14.6667 53.9303 14.0697 53.3333 13.3333 53.3333C12.597 53.3333 12 53.9303 12 54.6667C12 55.403 12.597 56 13.3333 56Z" fill="#FF8B00"/>
<path d="M18.6667 56C19.403 56 20 55.403 20 54.6667C20 53.9303 19.403 53.3333 18.6667 53.3333C17.9303 53.3333 17.3333 53.9303 17.3333 54.6667C17.3333 55.403 17.9303 56 18.6667 56Z" fill="#FF8B00"/>
<path d="M68 12H66.7733C66.6626 10.8515 66.2273 9.75822 65.5183 8.84788C64.8094 7.93755 63.856 7.24774 62.7696 6.85904C61.6832 6.47034 60.5086 6.39881 59.3831 6.65278C58.2576 6.90676 57.2275 7.47577 56.4133 8.29334L56.24 8.46668L56 8.29334C55.1042 7.41154 53.9565 6.82978 52.7157 6.62847C51.4749 6.42717 50.2023 6.61627 49.0736 7.16962C47.9449 7.72298 47.016 8.61327 46.4152 9.71744C45.8145 10.8216 45.5715 12.0851 45.72 13.3333H44C43.6464 13.3333 43.3072 13.4738 43.0572 13.7239C42.8071 13.9739 42.6667 14.3131 42.6667 14.6667C42.6667 15.0203 42.8071 15.3594 43.0572 15.6095C43.3072 15.8595 43.6464 16 44 16H46.6667C46.8885 16.3277 47.1383 16.6355 47.4133 16.92L55.28 24.7867C55.4046 24.9103 55.5523 25.008 55.7148 25.0744C55.8772 25.1407 56.0512 25.1744 56.2267 25.1733C56.5765 25.1719 56.9117 25.033 57.16 24.7867L65.0267 16.92C65.6631 16.2837 66.1504 15.5141 66.4533 14.6667H68C68.3536 14.6667 68.6928 14.5262 68.9428 14.2762C69.1929 14.0261 69.3333 13.687 69.3333 13.3333C69.3333 12.9797 69.1929 12.6406 68.9428 12.3905C68.6928 12.1405 68.3536 12 68 12ZM49.3333 10.1733C49.6518 9.85478 50.0302 9.60241 50.4467 9.43078C50.8632 9.25915 51.3095 9.17165 51.76 9.17334C52.6687 9.17575 53.5401 9.53485 54.1867 10.1733L55.3067 11.3067C55.5565 11.555 55.8944 11.6944 56.2467 11.6944C56.5989 11.6944 56.9369 11.555 57.1867 11.3067L58.32 10.1733C58.7635 9.73314 59.319 9.4226 59.9262 9.27532C60.5335 9.12803 61.1695 9.14961 61.7654 9.33771C62.3613 9.52582 62.8944 9.8733 63.3071 10.3425C63.7198 10.8118 63.9963 11.385 64.1067 12H60C59.793 12 59.5889 12.0482 59.4037 12.1408C59.2186 12.2333 59.0575 12.3677 58.9333 12.5333L56.12 16.28L53.1467 11.32C53.0541 11.1654 52.9312 11.0312 52.7853 10.9255C52.6394 10.8197 52.4736 10.7447 52.2979 10.7048C52.1222 10.6649 51.9402 10.6611 51.763 10.6935C51.5857 10.7259 51.4169 10.7939 51.2667 10.8933L48.3333 12.84C48.2973 12.3496 48.368 11.8573 48.5407 11.3969C48.7133 10.9365 48.9837 10.5191 49.3333 10.1733ZM63.1733 15.0267L56.2533 21.9467L49.5867 15.28L51.6267 13.9467L54.9067 19.4133C55.0277 19.5924 55.1905 19.7394 55.3809 19.8416C55.5714 19.9438 55.7839 19.9982 56 20C56.207 20 56.4111 19.9518 56.5963 19.8592C56.7814 19.7667 56.9425 19.6323 57.0667 19.4667L60.6667 14.6667H63.4533C63.3629 14.7925 63.2649 14.9127 63.16 15.0267H63.1733Z" fill="#FF8B00"/>
<path d="M17.3333 25.3333C17.687 25.3333 18.0261 25.1929 18.2761 24.9428C18.5262 24.6928 18.6667 24.3536 18.6667 24V18.6667C18.6667 18.313 18.5262 17.9739 18.2761 17.7239C18.0261 17.4738 17.687 17.3333 17.3333 17.3333H12C11.6464 17.3333 11.3072 17.4738 11.0572 17.7239C10.8071 17.9739 10.6667 18.313 10.6667 18.6667V24C10.6667 24.3536 10.8071 24.6928 11.0572 24.9428C11.3072 25.1929 11.6464 25.3333 12 25.3333C12.3536 25.3333 12.6928 25.1929 12.9428 24.9428C13.1929 24.6928 13.3333 24.3536 13.3333 24V20H16V24C16 24.3536 16.1405 24.6928 16.3905 24.9428C16.6406 25.1929 16.9797 25.3333 17.3333 25.3333Z" fill="#FF8B00"/>
<path d="M29.3333 24V16C29.3333 15.6464 29.1929 15.3072 28.9428 15.0572C28.6928 14.8071 28.3536 14.6667 28 14.6667H22.6667C22.313 14.6667 21.9739 14.8071 21.7239 15.0572C21.4738 15.3072 21.3333 15.6464 21.3333 16V24C21.3333 24.3536 21.4738 24.6928 21.7239 24.9428C21.9739 25.1929 22.313 25.3333 22.6667 25.3333C23.0203 25.3333 23.3594 25.1929 23.6095 24.9428C23.8595 24.6928 24 24.3536 24 24V17.3333H26.6667V24C26.6667 24.3536 26.8071 24.6928 27.0572 24.9428C27.3072 25.1929 27.6464 25.3333 28 25.3333C28.3536 25.3333 28.6928 25.1929 28.9428 24.9428C29.1929 24.6928 29.3333 24.3536 29.3333 24Z" fill="#FF8B00"/>
<path d="M38.6667 25.3333C39.0203 25.3333 39.3594 25.1929 39.6095 24.9428C39.8595 24.6928 40 24.3536 40 24V10.6667C40 10.313 39.8595 9.97391 39.6095 9.72386C39.3594 9.47381 39.0203 9.33333 38.6667 9.33333H33.3333C32.9797 9.33333 32.6406 9.47381 32.3905 9.72386C32.1405 9.97391 32 10.313 32 10.6667V24C32 24.3536 32.1405 24.6928 32.3905 24.9428C32.6406 25.1929 32.9797 25.3333 33.3333 25.3333C33.687 25.3333 34.0261 25.1929 34.2761 24.9428C34.5262 24.6928 34.6667 24.3536 34.6667 24V12H37.3333V24C37.3333 24.3536 37.4738 24.6928 37.7239 24.9428C37.9739 25.1929 38.313 25.3333 38.6667 25.3333Z" fill="#FF8B00"/>
<path d="M28.9467 5.72C28.8227 5.59503 28.6752 5.49584 28.5128 5.42814C28.3503 5.36045 28.176 5.3256 28 5.3256C27.824 5.3256 27.6497 5.36045 27.4872 5.42814C27.3248 5.49584 27.1773 5.59503 27.0533 5.72C23.8138 8.95555 19.5943 11.0278 15.0533 11.6133L11.88 12.0133C11.55 12.058 11.2486 12.2245 11.0352 12.4802C10.8217 12.7359 10.7117 13.0622 10.7268 13.3949C10.7418 13.7276 10.8808 14.0426 11.1165 14.278C11.3521 14.5133 11.6673 14.652 12 14.6667H12.16L15.3467 14.2667C20.4917 13.6068 25.2736 11.2627 28.9467 7.6C29.195 7.35018 29.3344 7.01225 29.3344 6.66C29.3344 6.30775 29.195 5.96982 28.9467 5.72Z" fill="#FF8B00"/>
<path d="M20 45.3333C21.5823 45.3333 23.129 44.8642 24.4446 43.9851C25.7602 43.106 26.7855 41.8566 27.391 40.3948C27.9965 38.933 28.155 37.3245 27.8463 35.7726C27.5376 34.2208 26.7757 32.7953 25.6569 31.6765C24.538 30.5577 23.1126 29.7957 21.5607 29.4871C20.0089 29.1784 18.4003 29.3368 16.9385 29.9423C15.4767 30.5478 14.2273 31.5732 13.3482 32.8888C12.4692 34.2044 12 35.7511 12 37.3333C12 39.4551 12.8429 41.4899 14.3431 42.9902C15.8434 44.4905 17.8783 45.3333 20 45.3333ZM25.1467 36H21.3333V32.1867C22.2505 32.4261 23.0872 32.9056 23.7575 33.5758C24.4277 34.2461 24.9073 35.0829 25.1467 36ZM18.6667 32.1867V37.3333C18.6667 37.687 18.8071 38.0261 19.0572 38.2761C19.3072 38.5262 19.6464 38.6667 20 38.6667H25.1467C24.9152 39.5802 24.4458 40.416 23.7863 41.0891C23.1268 41.7622 22.3007 42.2486 21.3922 42.4987C20.4836 42.7488 19.525 42.7537 18.6139 42.5129C17.7029 42.2721 16.8718 41.7942 16.2055 41.1278C15.5392 40.4615 15.0613 39.6305 14.8205 38.7194C14.5797 37.8083 14.5846 36.8497 14.8347 35.9412C15.0847 35.0326 15.5711 34.2065 16.2442 33.547C16.9173 32.8875 17.7532 32.4182 18.6667 32.1867Z" fill="#FF8B00"/>
<path d="M58.6667 45.3333H64C64.3536 45.3333 64.6928 45.1929 64.9428 44.9428C65.1929 44.6928 65.3333 44.3536 65.3333 44V41.3333H68C68.3536 41.3333 68.6928 41.1929 68.9428 40.9428C69.1929 40.6928 69.3333 40.3536 69.3333 40V34.6667C69.3333 34.313 69.1929 33.9739 68.9428 33.7239C68.6928 33.4738 68.3536 33.3333 68 33.3333H65.3333V30.6667C65.3333 30.313 65.1929 29.9739 64.9428 29.7239C64.6928 29.4738 64.3536 29.3333 64 29.3333H58.6667C58.313 29.3333 57.9739 29.4738 57.7239 29.7239C57.4738 29.9739 57.3333 30.313 57.3333 30.6667V33.3333H54.6667C54.313 33.3333 53.9739 33.4738 53.7239 33.7239C53.4738 33.9739 53.3333 34.313 53.3333 34.6667V40C53.3333 40.3536 53.4738 40.6928 53.7239 40.9428C53.9739 41.1929 54.313 41.3333 54.6667 41.3333H57.3333V44C57.3333 44.3536 57.4738 44.6928 57.7239 44.9428C57.9739 45.1929 58.313 45.3333 58.6667 45.3333ZM56 38.6667V36H58.6667C59.0203 36 59.3594 35.8595 59.6095 35.6095C59.8595 35.3594 60 35.0203 60 34.6667V32H62.6667V34.6667C62.6667 35.0203 62.8071 35.3594 63.0572 35.6095C63.3072 35.8595 63.6464 36 64 36H66.6667V38.6667H64C63.6464 38.6667 63.3072 38.8071 63.0572 39.0572C62.8071 39.3072 62.6667 39.6464 62.6667 40V42.6667H60V40C60 39.6464 59.8595 39.3072 59.6095 39.0572C59.3594 38.8071 59.0203 38.6667 58.6667 38.6667H56Z" fill="#FF8B00"/>
<path d="M33.3333 33.3333H40C40.3536 33.3333 40.6928 33.1929 40.9428 32.9428C41.1929 32.6928 41.3333 32.3536 41.3333 32C41.3333 31.6464 41.1929 31.3072 40.9428 31.0572C40.6928 30.8071 40.3536 30.6667 40 30.6667H33.3333C32.9797 30.6667 32.6406 30.8071 32.3905 31.0572C32.1405 31.3072 32 31.6464 32 32C32 32.3536 32.1405 32.6928 32.3905 32.9428C32.6406 33.1929 32.9797 33.3333 33.3333 33.3333Z" fill="#FF8B00"/>
<path d="M46.6667 37.3333C46.6667 36.9797 46.5262 36.6406 46.2761 36.3905C46.0261 36.1405 45.687 36 45.3333 36H33.3333C32.9797 36 32.6406 36.1405 32.3905 36.3905C32.1405 36.6406 32 36.9797 32 37.3333C32 37.687 32.1405 38.0261 32.3905 38.2761C32.6406 38.5262 32.9797 38.6667 33.3333 38.6667H45.3333C45.687 38.6667 46.0261 38.5262 46.2761 38.2761C46.5262 38.0261 46.6667 37.687 46.6667 37.3333Z" fill="#FF8B00"/>
<path d="M33.3333 41.3333C32.9797 41.3333 32.6406 41.4738 32.3905 41.7239C32.1405 41.9739 32 42.313 32 42.6667C32 43.0203 32.1405 43.3594 32.3905 43.6095C32.6406 43.8595 32.9797 44 33.3333 44H41.3333C41.687 44 42.0261 43.8595 42.2761 43.6095C42.5262 43.3594 42.6667 43.0203 42.6667 42.6667C42.6667 42.313 42.5262 41.9739 42.2761 41.7239C42.0261 41.4738 41.687 41.3333 41.3333 41.3333H33.3333Z" fill="#FF8B00"/>
</svg>
