<svg width="74" height="80" viewBox="0 0 74 80" fill="none" xmlns="http://www.w3.org/2000/svg">
<path d="M27.1187 56.9492C24.1275 56.9492 21.6949 59.3818 21.6949 62.3729C21.6949 65.3641 24.1275 67.7967 27.1187 67.7967C30.1099 67.7967 32.5424 65.3641 32.5424 62.3729C32.5424 59.3818 30.1099 56.9492 27.1187 56.9492ZM27.1187 65.0848C25.6231 65.0848 24.4068 63.8685 24.4068 62.3729C24.4068 60.8774 25.6231 59.6611 27.1187 59.6611C28.6143 59.6611 29.8305 60.8774 29.8305 62.3729C29.8305 63.8685 28.6143 65.0848 27.1187 65.0848Z" fill="#FF8B00"/>
<path d="M44.7458 67.7967C47.7369 67.7967 50.1695 65.3641 50.1695 62.3729C50.1695 59.3818 47.7369 56.9492 44.7458 56.9492C41.7546 56.9492 39.322 59.3818 39.322 62.3729C39.322 65.3641 41.7546 67.7967 44.7458 67.7967ZM44.7458 59.6611C46.2413 59.6611 47.4576 60.8774 47.4576 62.3729C47.4576 63.8685 46.2413 65.0848 44.7458 65.0848C43.2502 65.0848 42.0339 63.8685 42.0339 62.3729C42.0339 60.8774 43.2502 59.6611 44.7458 59.6611Z" fill="#FF8B00"/>
<path d="M67.7966 18.9831C67.5498 18.9831 67.3139 19.0237 67.0752 19.0563L56.1803 8.16271C56.6563 7.35593 56.9492 6.42712 56.9492 5.42373C56.9492 2.43254 54.5166 0 51.5254 0C48.9925 0 46.8759 1.75186 46.2834 4.10441C46.221 4.09627 46.1654 4.0678 46.1017 4.0678H37.9661C37.9661 3.31797 37.3586 2.71186 36.6102 2.71186C35.8617 2.71186 35.2542 3.31797 35.2542 4.0678H27.1186C27.0549 4.0678 26.9993 4.09627 26.9369 4.10441C26.3444 1.75186 24.2278 0 21.6949 0C18.7037 0 16.2712 2.43254 16.2712 5.42373C16.2712 6.42712 16.5641 7.35593 17.04 8.16271L6.14508 19.0563C5.90644 19.0237 5.67051 18.9831 5.42373 18.9831C2.43254 18.9831 0 21.4156 0 24.4068C0 27.398 2.43254 29.8305 5.42373 29.8305C5.64068 29.8305 5.84678 29.7912 6.0583 29.7668L17.9363 44.2237C18.2047 44.5492 18.5925 44.7186 18.9844 44.7186C19.2881 44.7186 19.5919 44.6183 19.8441 44.4095C20.423 43.9336 20.5058 43.0807 20.0312 42.5017L8.69424 28.7051C9.99458 27.7125 10.8475 26.1641 10.8475 24.4068C10.8475 22.7092 10.0475 21.2095 8.82169 20.2142L18.9573 10.0786C19.7641 10.5559 20.6929 10.8475 21.6949 10.8475C24.2278 10.8475 26.3444 9.09559 26.9369 6.74305C26.9993 6.75119 27.0549 6.77966 27.1186 6.77966H35.2542V12.2034H27.1186C26.3702 12.2034 25.7627 12.8095 25.7627 13.5593C25.7627 14.3092 26.3702 14.9153 27.1186 14.9153H35.2542V17.6271H24.4068C23.6583 17.6271 23.0508 18.2332 23.0508 18.9831C23.0508 19.7329 23.6583 20.339 24.4068 20.339H35.2542V23.0508H18.983C18.2346 23.0508 17.6271 23.6569 17.6271 24.4068C17.6271 25.1566 18.2346 25.7627 18.983 25.7627H35.2542V28.4746H18.983C18.2346 28.4746 17.6271 29.0807 17.6271 29.8305C17.6271 30.5803 18.2346 31.1864 18.983 31.1864H35.2542V33.8983H24.4068C23.6583 33.8983 23.0508 34.5044 23.0508 35.2542C23.0508 36.0041 23.6583 36.6102 24.4068 36.6102H35.2542V39.322H27.1186C26.3702 39.322 25.7627 39.9281 25.7627 40.678C25.7627 41.4278 26.3702 42.0339 27.1186 42.0339H35.2542V48.8136H31.1864C29.8888 48.8136 28.6197 49.1932 27.5132 49.9119L26.1993 51.1756C25.0671 52.297 23.4875 52.7634 22.0814 52.3905C19.7546 51.7736 16.1356 52.438 14.0881 54.2929C13.9119 54.2739 13.741 54.2373 13.5593 54.2373C10.5681 54.2373 8.13559 56.6698 8.13559 59.661C8.13559 62.1817 9.87119 64.2861 12.2034 64.8922V78.6441C12.2034 79.3939 12.8108 80 13.5593 80C14.3078 80 14.9153 79.3939 14.9153 78.6441V64.8922C15.04 64.8597 15.1607 64.819 15.2827 64.7783L24.9749 73.1647C27.2786 75.4698 30.7566 75.9471 33.4291 74.3227C34.6997 73.5525 35.6542 72.4258 36.1898 71.0617C36.2658 70.8664 36.419 70.7105 36.6169 70.621C36.8149 70.7119 36.9681 70.8678 37.0454 71.063C37.581 72.4244 38.5356 73.5525 39.8075 74.3241C40.8773 74.9736 42.0732 75.2868 43.2678 75.2868C45.059 75.2868 46.8407 74.5817 48.1668 73.2502L58.2495 64.8759C58.2685 64.8814 58.2847 64.8881 58.3037 64.8922V78.6441C58.3037 79.3939 58.9112 80 59.6597 80C60.4081 80 61.0156 79.3939 61.0156 78.6441V64.8922C63.3478 64.2861 65.0834 62.1817 65.0834 59.661C65.0834 56.6698 62.6508 54.2373 59.6597 54.2373C59.4969 54.2373 59.3437 54.2712 59.1837 54.2847C57.2149 52.6861 53.8929 51.9173 51.8291 52.2468C49.9797 52.5329 48.2671 51.9553 47.242 50.6847L46.2725 49.4847L45.962 49.3519C45.1241 48.9953 44.2359 48.8136 43.3207 48.8136H37.9661V42.0339H46.1017C46.8502 42.0339 47.4576 41.4278 47.4576 40.678C47.4576 39.9281 46.8502 39.322 46.1017 39.322H37.9661V36.6102H48.8136C49.562 36.6102 50.1695 36.0041 50.1695 35.2542C50.1695 34.5044 49.562 33.8983 48.8136 33.8983H37.9661V31.1864H54.2373C54.9858 31.1864 55.5932 30.5803 55.5932 29.8305C55.5932 29.0807 54.9858 28.4746 54.2373 28.4746H37.9661V25.7627H54.2373C54.9858 25.7627 55.5932 25.1566 55.5932 24.4068C55.5932 23.6569 54.9858 23.0508 54.2373 23.0508H37.9661V20.339H48.8136C49.562 20.339 50.1695 19.7329 50.1695 18.9831C50.1695 18.2332 49.562 17.6271 48.8136 17.6271H37.9661V14.9153H46.1017C46.8502 14.9153 47.4576 14.3092 47.4576 13.5593C47.4576 12.8095 46.8502 12.2034 46.1017 12.2034H37.9661V6.77966H46.1017C46.1654 6.77966 46.221 6.75119 46.2834 6.74305C46.8759 9.09559 48.9925 10.8475 51.5254 10.8475C52.5275 10.8475 53.4563 10.5559 54.2631 10.0786L64.3986 20.2142C63.1729 21.2095 62.3729 22.7092 62.3729 24.4068C62.3729 26.1641 63.2258 27.7125 64.5261 28.7051L53.1905 42.5017C52.7146 43.0807 52.7986 43.9349 53.3776 44.4095C53.6298 44.6169 53.9349 44.7186 54.2373 44.7186C54.6292 44.7186 55.0169 44.5492 55.2854 44.2237L67.1634 29.7668C67.3736 29.7912 67.5797 29.8305 67.7966 29.8305C70.7878 29.8305 73.2203 27.398 73.2203 24.4068C73.2203 21.4156 70.7878 18.9831 67.7966 18.9831ZM2.71186 24.4068C2.71186 22.9112 3.92814 21.6949 5.42373 21.6949C6.91932 21.6949 8.13559 22.9112 8.13559 24.4068C8.13559 25.9024 6.91932 27.1186 5.42373 27.1186C3.92814 27.1186 2.71186 25.9024 2.71186 24.4068ZM21.6949 8.13559C20.1993 8.13559 18.983 6.91932 18.983 5.42373C18.983 3.92814 20.1993 2.71186 21.6949 2.71186C23.1905 2.71186 24.4068 3.92814 24.4068 5.42373C24.4068 6.91932 23.1905 8.13559 21.6949 8.13559ZM10.8475 59.661C10.8475 58.1654 12.0637 56.9492 13.5593 56.9492C13.7207 56.9492 13.8753 56.9695 14.0285 56.9966L14.2224 57.0454C14.6685 57.158 15.0631 57.3776 15.3858 57.6692C15.3912 57.6746 15.398 57.6786 15.4034 57.6841C15.482 57.7559 15.5512 57.8386 15.6203 57.9186C15.6583 57.9634 15.6976 58.0068 15.7315 58.0542C15.7844 58.1247 15.8319 58.1993 15.8766 58.2753C15.9173 58.3431 15.9553 58.4122 15.9905 58.4841C16.0244 58.5532 16.0556 58.6224 16.0841 58.6942C16.1193 58.7864 16.1478 58.8827 16.1722 58.979C16.1885 59.0386 16.2075 59.0983 16.2183 59.1593C16.2508 59.3234 16.2712 59.4902 16.2712 59.661C16.2712 59.8875 16.2359 60.1071 16.1803 60.3214C16.1695 60.362 16.1546 60.4014 16.1424 60.442C16.0814 60.6359 16.0054 60.8258 15.9024 61.0007C15.8969 61.0102 15.8915 61.021 15.8861 61.0305C15.6434 61.4332 15.2963 61.7763 14.8678 62.0163L14.6061 62.1627C14.2847 62.297 13.9308 62.3729 13.5593 62.3729C12.0637 62.3729 10.8475 61.1566 10.8475 59.661ZM62.3729 59.661C62.3729 61.1566 61.1566 62.3729 59.661 62.3729C59.3085 62.3729 58.9722 62.301 58.663 62.1763L58.5329 62.1166C58.301 62.0095 58.0922 61.8698 57.9037 61.7085C57.8915 61.6976 57.878 61.6881 57.8671 61.6773C57.5078 61.3586 57.2447 60.9478 57.0942 60.4949C57.0793 60.4488 57.0644 60.4041 57.0508 60.3566C56.9898 60.1329 56.9492 59.901 56.9492 59.661C56.9492 59.4861 56.9695 59.3153 57.0007 59.1485C57.0102 59.101 57.0251 59.0563 57.0373 59.0102C57.0671 58.8909 57.101 58.7742 57.1458 58.6631C57.1647 58.6156 57.1878 58.5695 57.2095 58.5234C57.2583 58.4176 57.3139 58.3146 57.3763 58.217C57.4034 58.1736 57.4319 58.1315 57.4617 58.0895C57.5281 57.9973 57.6013 57.9105 57.6786 57.8278C57.7152 57.7871 57.7519 57.7464 57.7912 57.7085C57.8644 57.638 57.9458 57.5756 58.0271 57.5146C58.0813 57.4739 58.1315 57.4292 58.1885 57.3925C58.2414 57.3586 58.2997 57.3329 58.3552 57.3017C58.5736 57.1824 58.8054 57.0834 59.059 57.0251L59.1715 56.9993C59.3288 56.9695 59.4929 56.9492 59.661 56.9492C61.1566 56.9492 62.3729 58.1654 62.3729 59.661ZM44.6047 51.7342L45.1336 52.3878C46.7756 54.4217 49.4359 55.3681 52.2549 54.9234C53.2515 54.7675 54.8108 55.0292 56.0963 55.5702C56.0434 55.6163 56.0054 55.6746 55.9539 55.722C55.8291 55.8386 55.718 55.9675 55.6054 56.0949C55.4753 56.2427 55.3451 56.3864 55.2312 56.5478C55.1363 56.6834 55.0603 56.8298 54.9776 56.9736C54.88 57.1431 54.7769 57.3071 54.6983 57.4875C54.6169 57.6719 54.5654 57.8698 54.5044 58.0637C54.4569 58.2197 54.3946 58.3675 54.3593 58.5288C54.282 58.8949 54.2373 59.2732 54.2373 59.661C54.2373 60.0203 54.2752 60.3742 54.3444 60.72C54.3973 60.9885 54.4868 61.242 54.579 61.4956C54.6047 61.5661 54.6169 61.6407 54.6454 61.7085C54.762 61.9946 54.9112 62.2617 55.0725 62.5207C55.0915 62.5519 55.1051 62.5871 55.1254 62.617C55.2963 62.8786 55.4929 63.1173 55.7058 63.3451C55.7275 63.3681 55.7424 63.3953 55.7641 63.417L46.3444 71.2461C44.9492 72.6427 42.7905 72.9614 41.2176 72.0054C40.4461 71.5363 39.8929 70.8854 39.5729 70.0692C39.1214 68.9166 38.1044 68.0963 36.8569 67.8753L36.6197 67.8332L36.3824 67.8753C35.1349 68.0963 34.1193 68.918 33.6678 70.0678C33.3464 70.8854 32.7932 71.5363 32.0244 72.0041C30.4502 72.96 28.2929 72.6427 26.8244 71.181L17.6325 63.223C17.6692 63.181 17.6963 63.1308 17.7315 63.0875C17.8847 62.9003 18.0312 62.7105 18.16 62.5044C18.2183 62.4122 18.263 62.3132 18.3159 62.2183C18.419 62.0285 18.5207 61.8386 18.6007 61.6366C18.659 61.4902 18.6956 61.3356 18.7417 61.1851C18.7905 61.0197 18.8502 60.8583 18.8827 60.6875C18.9451 60.3512 18.983 60.0095 18.983 59.661C18.983 59.2664 18.9356 58.8841 18.8556 58.5139C18.8325 58.4054 18.7878 58.3064 18.758 58.2007C18.6847 57.9417 18.6075 57.6868 18.499 57.4454C18.4475 57.3315 18.3797 57.2271 18.32 57.1173C18.202 56.8976 18.08 56.6834 17.9336 56.4827C17.859 56.381 17.7763 56.2902 17.6963 56.1939C17.5336 56 17.3627 55.8156 17.1742 55.6461C17.1363 55.6122 17.1078 55.5688 17.0698 55.5363C18.4312 54.9166 20.2264 54.7037 21.3898 55.0102C23.7234 55.6285 26.2983 54.8976 28.1112 53.0997L29.1024 52.1166C29.7397 51.7288 30.4569 51.5254 31.1864 51.5254H43.3207C43.7614 51.5254 44.1925 51.5959 44.6047 51.7342ZM48.8136 5.42373C48.8136 3.92814 50.0298 2.71186 51.5254 2.71186C53.021 2.71186 54.2373 3.92814 54.2373 5.42373C54.2373 6.91932 53.021 8.13559 51.5254 8.13559C50.0298 8.13559 48.8136 6.91932 48.8136 5.42373ZM67.7966 27.1186C66.301 27.1186 65.0847 25.9024 65.0847 24.4068C65.0847 22.9112 66.301 21.6949 67.7966 21.6949C69.2922 21.6949 70.5085 22.9112 70.5085 24.4068C70.5085 25.9024 69.2922 27.1186 67.7966 27.1186Z" fill="#FF8B00"/>
</svg>
