<svg width="80" height="80" viewBox="0 0 80 80" fill="none" xmlns="http://www.w3.org/2000/svg">
<path d="M17.1612 64.6216C16.7575 64.2396 16.3499 63.8552 15.9423 63.4668C22.0135 57.511 28.1961 50.1941 28.1961 40.2691C28.1961 30.3441 22.0135 23.0272 15.9423 17.0701C16.3499 16.6818 16.7575 16.2973 17.1612 15.9154C22.3954 10.9708 26.9145 6.7004 26.9145 1.81991V0.538267H24.3512V1.81991C24.3512 2.66451 24.1333 3.51808 23.7565 4.38319H4.4396C4.0628 3.51808 3.84492 2.66451 3.84492 1.81991V0.538267H1.28164V1.81991C1.28164 6.7004 5.8007 10.9708 11.0349 15.9167C11.4386 16.2986 11.8462 16.6831 12.2538 17.0714C6.18263 23.0272 0 30.3441 0 40.2691C0 50.1941 6.18263 57.511 12.2538 63.4681C11.8462 63.8564 11.4386 64.2409 11.0349 64.6229C5.8007 69.5674 1.28164 73.8379 1.28164 78.7183V80H3.84492V78.7183C3.84492 77.8737 4.0628 77.0202 4.4396 76.1551H23.7578C24.1333 77.0202 24.3512 77.8737 24.3512 78.7183V80H26.9145V78.7183C26.9145 73.8379 22.3954 69.5674 17.1612 64.6216ZM5.97244 6.94647H22.2236C21.5982 7.78338 20.8561 8.63695 20.0346 9.50975H8.16149C7.33996 8.63695 6.5966 7.78338 5.97244 6.94647ZM10.7145 12.073H17.4803C16.8074 12.7215 16.1128 13.379 15.4002 14.0532C14.9721 14.4582 14.5364 14.8696 14.098 15.2861C13.6584 14.8696 13.224 14.4582 12.7959 14.0532C12.0833 13.379 11.3874 12.7215 10.7145 12.073ZM14.098 18.8491C15.6488 20.3665 17.1817 21.9417 18.5979 23.6078H9.59821C11.0144 21.9417 12.5473 20.3665 14.098 18.8491ZM4.54982 31.2976H16.6613V28.7344H5.90067C6.4505 27.8052 7.04774 26.9042 7.68984 26.0275V26.1711H20.5062V26.0275C21.1483 26.9029 21.7456 27.8052 22.2954 28.7344H19.2246V31.2976H23.6476C24.0231 32.1269 24.3396 32.9856 24.6178 33.8609H3.57962C3.85774 32.9856 4.17302 32.1269 4.54982 31.2976ZM2.9183 36.4242H25.2791C25.4329 37.2547 25.5213 38.1134 25.5751 38.9875H2.62224C2.67478 38.1134 2.76322 37.2547 2.9183 36.4242ZM3.57834 46.6773H7.68984V44.114H2.91701C2.76322 43.2835 2.67478 42.4248 2.62095 41.5508H25.5739C25.5213 42.4248 25.4329 43.2835 25.2778 44.114H10.2531V46.6773H24.6165C24.3384 47.5527 24.0231 48.4114 23.6463 49.2406H4.54854C4.17302 48.4114 3.85646 47.5527 3.57834 46.6773ZM7.68984 54.5107C7.04774 53.6341 6.4505 52.7331 5.90067 51.8039H22.2954C21.7469 52.7331 21.1483 53.6341 20.5062 54.5107V54.3672H7.68984V54.5107ZM9.59821 56.9305H18.5979C17.1817 58.5966 15.6488 60.1717 14.098 61.6892C12.5473 60.1717 11.0144 58.5966 9.59821 56.9305ZM12.7959 66.4851C13.224 66.0801 13.6597 65.6687 14.098 65.2521C14.5376 65.67 14.9721 66.0814 15.4002 66.4851C16.1128 67.1592 16.8087 67.8167 17.4803 68.4652H10.7145C11.3874 67.8167 12.0833 67.1592 12.7959 66.4851ZM5.97244 73.5918C6.59789 72.7549 7.33996 71.9013 8.16149 71.0285H20.0359C20.8574 71.9013 21.5995 72.7549 22.2249 73.5918H5.97244Z" fill="#FF8B00"/>
<path d="M73.0535 69.7469H70.9862C74.0083 64.2756 75.6168 58.0929 75.6168 51.8039C75.6168 41.4572 71.2836 31.5873 63.7129 24.5614L67.1926 21.0817L64.628 18.5171L69.2253 13.9225L70.512 15.2079L76.1435 9.52643L66.6427 0L61.0112 5.71484L62.2826 6.98622L57.6815 11.5719L55.1272 9.01762L37.1842 26.9606L34.621 24.3973L28.9638 30.0545L46.1557 47.2464L51.8129 41.5892L49.2496 39.026L56.4396 31.836C60.1371 35.1746 62.8619 39.4976 64.2602 44.2422C61.9635 44.7472 60.2371 46.7927 60.2371 49.2406C60.2371 52.0256 62.4723 54.2877 65.2406 54.3544C65.1394 55.4258 64.9702 56.4896 64.7421 57.5393C63.7398 57.1522 62.6556 56.9305 61.5187 56.9305H42.2941C38.7607 56.9305 35.8859 59.8052 35.8859 63.3387V64.6203H52.6498C52.5896 65.0407 52.5473 65.4662 52.5473 65.902V69.7469H34.6043C31.0708 69.7469 28.1961 72.6216 28.1961 76.1551V80H79.4617V76.1551C79.4617 72.6216 76.587 69.7469 73.0535 69.7469ZM66.653 3.63986L72.5268 9.53156L70.5018 11.5758L64.6229 5.70074L66.653 3.63986ZM64.0961 8.79718L67.4117 12.1102L62.8158 16.7036L59.495 13.3829L64.0961 8.79718ZM46.1557 43.6206L32.5883 30.0532L34.621 28.0205L48.1884 41.588L46.1557 43.6206ZM47.4374 37.2124L38.9965 28.7715L55.1272 12.6408L63.5681 21.0817L47.4374 37.2124ZM58.2544 30.0211L61.9007 26.3749C68.992 32.9202 73.0535 42.1378 73.0535 51.8039C73.0535 56.3486 72.1589 60.8344 70.4441 64.9971C70.1942 62.5133 68.9228 60.3307 67.0631 58.8632C67.4797 57.1714 67.7462 55.4374 67.8577 53.6918C69.4201 52.8126 70.4902 51.158 70.4902 49.2406C70.4902 46.9747 69.0035 45.0702 66.9619 44.3947C65.5303 38.8991 62.4774 33.8686 58.2544 30.0211ZM62.8004 49.2406C62.8004 47.827 63.95 46.6773 65.3637 46.6773C66.7773 46.6773 67.9269 47.827 67.9269 49.2406C67.9269 50.6543 66.7773 51.8039 65.3637 51.8039C63.95 51.8039 62.8004 50.6543 62.8004 49.2406ZM38.6684 62.057C39.1977 60.5652 40.6229 59.4938 42.2941 59.4938H55.2515C54.4992 60.2294 53.8827 61.0971 53.4252 62.057H38.6684ZM76.8984 77.4367H30.7594V76.1551C30.7594 74.0352 32.4845 72.3102 34.6043 72.3102H57.6738V69.7469H55.1105V65.902C55.1105 62.3685 57.9853 59.4938 61.5187 59.4938C65.0522 59.4938 67.9269 62.3685 67.9269 65.902V69.7469H60.2371V72.3102H73.0535C75.1733 72.3102 76.8984 74.0352 76.8984 76.1551V77.4367Z" fill="#FF8B00"/>
</svg>
