<svg width="76" height="76" viewBox="0 0 76 76" fill="none" xmlns="http://www.w3.org/2000/svg">
<path d="M44.129 1.22581C44.129 0.547663 43.5814 0 42.9032 0H1.22581C0.547663 0 0 0.547663 0 1.22581V11.0323C0 11.7104 0.547663 12.2581 1.22581 12.2581H4.90323V58.8387C4.90323 68.3022 12.601 76 22.0645 76C31.528 76 39.2258 68.3022 39.2258 58.8387V12.2581H42.9032C43.5814 12.2581 44.129 11.7104 44.129 11.0323V1.22581ZM36.7742 58.8387C36.7742 66.9501 30.1759 73.5484 22.0645 73.5484C13.9531 73.5484 7.35484 66.9501 7.35484 58.8387V12.2581H36.7742V58.8387ZM41.6774 9.80645H2.45161V2.45161H41.6774V9.80645Z" fill="#FF8B00"/>
<path d="M9.80645 57.6165V63.7419H12.2581V61.2903H14.7097V58.8387H12.2581V57.6165C12.2581 57.2047 12.2742 56.7953 12.3 56.3871H31.8291C31.8548 56.7953 31.871 57.2047 31.871 57.6165V58.8387H29.4194V61.2903H31.871V63.7419H34.3226V57.6165C34.3226 50.1832 30.5715 43.2869 24.4365 39.2258C30.5715 35.1635 34.3226 28.2684 34.3226 20.8351V14.7097H31.871V17.1613H29.4194V19.6129H31.871V20.8351C31.871 21.2469 31.8548 21.6563 31.8291 22.0645H12.3C12.2742 21.6563 12.2581 21.2469 12.2581 20.8351V19.6129H14.7097V17.1613H12.2581V14.7097H9.80645V20.8351C9.80645 28.2684 13.5575 35.1647 19.6925 39.2258C13.5575 43.2881 9.80645 50.1832 9.80645 57.6165ZM29.8838 49.0323H14.2452C14.6594 48.1829 15.1275 47.3617 15.6584 46.5806H28.4695C29.0016 47.3617 29.4696 48.1829 29.8838 49.0323ZM12.6136 53.9355C12.7728 53.1017 12.9877 52.2829 13.251 51.4839H30.878C31.1413 52.2829 31.355 53.1017 31.5154 53.9355H12.6136ZM14.2452 29.4194H29.8838C29.4696 30.2687 29.0016 31.0899 28.4707 31.871H15.6584C15.1275 31.0899 14.6594 30.2687 14.2452 29.4194ZM31.5154 24.5161C31.3562 25.3499 31.1413 26.1687 30.878 26.9677H13.251C12.9877 26.1687 12.774 25.3499 12.6136 24.5161H31.5154ZM17.6467 34.3226H26.4823C25.2015 35.6747 23.7207 36.8538 22.0645 37.8115C20.4084 36.8538 18.9276 35.6747 17.6467 34.3226ZM22.0645 40.6402C23.7207 41.5966 25.2015 42.7769 26.4823 44.129H17.6467C18.9276 42.7769 20.4084 41.5978 22.0645 40.6402Z" fill="#FF8B00"/>
<path d="M17.1613 62.5161C15.134 62.5161 13.4839 64.1663 13.4839 66.1936C13.4839 68.2208 15.134 69.871 17.1613 69.871C19.1885 69.871 20.8387 68.2208 20.8387 66.1936C20.8387 64.1663 19.1885 62.5161 17.1613 62.5161ZM17.1613 67.4194C16.4849 67.4194 15.9355 66.8699 15.9355 66.1936C15.9355 65.5172 16.4849 64.9677 17.1613 64.9677C17.8376 64.9677 18.3871 65.5172 18.3871 66.1936C18.3871 66.8699 17.8376 67.4194 17.1613 67.4194Z" fill="#FF8B00"/>
<path d="M24.5161 62.5161H26.9677V64.9677H24.5161V62.5161Z" fill="#FF8B00"/>
<path d="M57.6129 31.871H45.3548C44.6767 31.871 44.129 32.4186 44.129 33.0968V38C44.129 38.6781 44.6767 39.2258 45.3548 39.2258H46.5806V71.0968C46.5806 73.801 48.7797 76 51.4839 76C54.1881 76 56.3871 73.801 56.3871 71.0968V39.2258H57.6129C58.291 39.2258 58.8387 38.6781 58.8387 38V33.0968C58.8387 32.4186 58.291 31.871 57.6129 31.871ZM51.4839 73.5484C50.1318 73.5484 49.0323 72.4489 49.0323 71.0968V51.4839H53.9355V71.0968C53.9355 72.4489 52.836 73.5484 51.4839 73.5484ZM53.9355 49.0323H49.0323V39.2258H53.9355V49.0323ZM56.3871 36.7742H46.5806V34.3226H56.3871V36.7742Z" fill="#FF8B00"/>
<path d="M74.7742 31.871H62.5161C61.838 31.871 61.2903 32.4186 61.2903 33.0968V38C61.2903 38.6781 61.838 39.2258 62.5161 39.2258H63.7419V71.0968C63.7419 73.801 65.941 76 68.6452 76C71.3494 76 73.5484 73.801 73.5484 71.0968V39.2258H74.7742C75.4523 39.2258 76 38.6781 76 38V33.0968C76 32.4186 75.4523 31.871 74.7742 31.871ZM68.6452 73.5484C67.2931 73.5484 66.1936 72.4489 66.1936 71.0968V51.4839H71.0968V71.0968C71.0968 72.4489 69.9973 73.5484 68.6452 73.5484ZM71.0968 49.0323H66.1936V39.2258H71.0968V49.0323ZM73.5484 36.7742H63.7419V34.3226H73.5484V36.7742Z" fill="#FF8B00"/>
<path d="M52.7097 17.1613C53.6769 17.1613 54.5508 16.7788 55.208 16.1671L66.245 22.7887C66.2217 22.9545 66.1936 23.1185 66.1936 23.2903C66.1936 25.3176 67.8437 26.9677 69.871 26.9677C71.8982 26.9677 73.5484 25.3176 73.5484 23.2903C73.5484 21.2631 71.8982 19.6129 69.871 19.6129C68.9037 19.6129 68.0299 19.9954 67.3727 20.6071L56.3356 13.9854C56.359 13.8197 56.3871 13.6557 56.3871 13.4839C56.3871 13.3318 56.3602 13.1858 56.3416 13.0392L67.0614 7.67985C67.9467 8.96191 69.4233 9.80645 71.0968 9.80645C73.801 9.80645 76 7.60742 76 4.90323C76 2.19903 73.801 0 71.0968 0C68.3926 0 66.1936 2.19903 66.1936 4.90323C66.1936 5.05525 66.2253 5.2001 66.239 5.34794L55.2559 10.8395C54.5939 10.2039 53.6991 9.80645 52.7097 9.80645C50.6824 9.80645 49.0323 11.4566 49.0323 13.4839C49.0323 15.5111 50.6824 17.1613 52.7097 17.1613ZM71.0968 2.45161C72.4489 2.45161 73.5484 3.55113 73.5484 4.90323C73.5484 6.25532 72.4489 7.35484 71.0968 7.35484C69.7447 7.35484 68.6452 6.25532 68.6452 4.90323C68.6452 3.55113 69.7447 2.45161 71.0968 2.45161ZM69.871 22.0645C70.5473 22.0645 71.0968 22.614 71.0968 23.2903C71.0968 23.9667 70.5473 24.5161 69.871 24.5161C69.1946 24.5161 68.6452 23.9667 68.6452 23.2903C68.6452 22.614 69.1946 22.0645 69.871 22.0645ZM52.7097 12.2581C53.386 12.2581 53.9355 12.8075 53.9355 13.4839C53.9355 14.1602 53.386 14.7097 52.7097 14.7097C52.0333 14.7097 51.4839 14.1602 51.4839 13.4839C51.4839 12.8075 52.0333 12.2581 52.7097 12.2581Z" fill="#FF8B00"/>
</svg>
