<svg width="64" height="80" viewBox="0 0 64 80" fill="none" xmlns="http://www.w3.org/2000/svg">
<path d="M58.6495 3.75241H52.8117C52.1647 3.75241 51.6399 4.27729 51.6399 4.92424C51.6399 5.5715 52.1647 6.09606 52.8117 6.09606H53.5359V70.8044H9.78776V6.09606H14.665V8.75803C14.665 10.7987 16.3248 12.4585 18.3655 12.4585H23.9057C24.4597 15.5164 27.142 17.8422 30.3561 17.8422H32.967C36.1808 17.8422 38.8631 15.5164 39.4171 12.4585H44.9573C46.9982 12.4585 48.6586 10.7984 48.6586 8.75803V3.70077C48.6586 1.66009 46.9982 0 44.9576 0H18.3655C16.3248 0 14.665 1.66009 14.665 3.70077V3.75241H4.67353C2.09639 3.75241 0 5.84943 0 8.42563V55.4683C0 56.1159 0.524568 56.6402 1.17183 56.6402C1.81846 56.6402 2.34365 56.1159 2.34365 55.4683V8.42563C2.34365 7.14144 3.38966 6.09606 4.67353 6.09606H7.44348V71.9753C7.44348 72.6229 7.96867 73.1471 8.6153 73.1471H54.7078C55.3553 73.1471 55.8796 72.6229 55.8796 71.9753V6.09606H58.6495C59.9344 6.09606 60.9791 7.14144 60.9791 8.42563V75.3258C60.9791 76.611 59.9344 77.6563 58.6495 77.6563H4.67353C3.38966 77.6563 2.34365 76.611 2.34365 75.3258V60.9919C2.34365 60.3453 1.81846 59.8201 1.17183 59.8201C0.524568 59.8201 0 60.3453 0 60.9919V75.3258C0 77.9033 2.09639 80 4.67353 80H58.6495C61.2267 80 63.3228 77.9033 63.3228 75.3258V8.42563C63.3228 5.84943 61.2267 3.75241 58.6495 3.75241ZM17.0087 3.70077C17.0087 2.95241 17.6171 2.34397 18.3655 2.34397H44.9576C45.7059 2.34397 46.3144 2.95241 46.3144 3.70077V8.75803C46.3144 9.50638 45.7059 10.1148 44.9576 10.1148H38.351C37.7034 10.1148 37.1792 10.6397 37.1792 11.2867C37.1792 13.6093 35.2894 15.4985 32.967 15.4985H30.3561C28.0337 15.4985 26.1442 13.6093 26.1442 11.2867C26.1442 10.6397 25.6196 10.1148 24.9724 10.1148H18.3655C17.6171 10.1148 17.0087 9.50638 17.0087 8.75803V3.70077Z" fill="#FF8B00"/>
<path d="M46.5889 32.065H40.3927L36.4321 21.2506C36.039 20.1755 34.4797 20.2484 34.1965 21.3652L29.9427 38.1141L25.8359 26.167C25.5076 25.2121 24.2006 25.0935 23.7057 25.9749L20.2892 32.0656H16.7343C16.0864 32.0656 15.5624 32.5899 15.5624 33.2374C15.5624 33.8844 16.0864 34.4093 16.7343 34.4093H20.9756C21.3996 34.4093 21.7903 34.1801 21.9981 33.8105L24.4697 29.4027L29.0031 42.5901C29.3805 43.6884 30.9617 43.6236 31.2472 42.4978L35.5354 25.6159L38.4734 33.6399C38.6422 34.1016 39.0816 34.4086 39.5739 34.4086H46.5886C47.2362 34.4086 47.7604 33.8844 47.7604 33.2368C47.7604 32.5899 47.2362 32.065 46.5889 32.065Z" fill="#FF8B00"/>
<path d="M46.5889 51.3901H16.7343C16.087 51.3901 15.5624 51.9143 15.5624 52.5619C15.5624 53.2092 16.087 53.7337 16.7343 53.7337H46.5889C47.2362 53.7337 47.7607 53.2092 47.7607 52.5619C47.7607 51.9143 47.2362 51.3901 46.5889 51.3901Z" fill="#FF8B00"/>
<path d="M46.5889 61.7143H16.7343C16.087 61.7143 15.5624 62.2392 15.5624 62.8861C15.5624 63.5334 16.087 64.058 16.7343 64.058H46.5889C47.2362 64.058 47.7607 63.5334 47.7607 62.8861C47.7607 62.2392 47.2362 61.7143 46.5889 61.7143Z" fill="#FF8B00"/>
</svg>
