<svg width="79" height="80" viewBox="0 0 79 80" fill="none" xmlns="http://www.w3.org/2000/svg">
<path d="M69.0628 45.4913C69.1123 44.7375 69.1392 43.9807 69.1392 43.2202V36.9702C70.74 35.4156 72.1666 33.8873 73.3879 32.4109C78.0399 26.7865 79.5503 22.1729 77.7557 19.0692C76.422 16.7621 73.5254 15.6244 69.1392 15.6769V10.7928C69.1392 9.30298 67.9259 8.09143 66.4339 8.09143H55.4355V2.70142C55.4355 1.21216 54.2216 0 52.7302 0H47.7132C47.0647 0 46.5396 0.524292 46.5396 1.17188C46.5396 1.81946 47.0647 2.34375 47.7132 2.34375H52.7302C52.9276 2.34375 53.0883 2.50427 53.0883 2.70142V8.09143H25.4107V2.70142C25.4107 2.50427 25.5714 2.34375 25.7689 2.34375H42.3649C43.0128 2.34375 43.5385 1.81946 43.5385 1.17188C43.5385 0.524292 43.0128 0 42.3649 0H25.7689C24.2768 0 23.0635 1.21216 23.0635 2.70142V8.09143H12.0651C10.5731 8.09143 9.35979 9.30298 9.35979 10.7928V15.6769C4.97361 15.6244 2.077 16.7621 0.743297 19.0692C-1.7768 23.4277 2.36305 30.1605 9.35979 36.9562V43.2202C9.35979 43.9807 9.38485 44.7388 9.43497 45.4919C1.54584 53.1384 -1.5427 59.5154 0.743297 63.4686C2.03849 65.7092 4.91066 66.8604 9.13119 66.8604C10.1568 66.8604 11.2632 66.792 12.4453 66.6553C14.073 66.4667 15.8254 66.1505 17.678 65.719C20.2293 68.7097 23.3032 71.2866 26.8104 73.2941L37.9042 79.6436C38.3192 79.881 38.7844 80 39.2495 80C39.7147 80 40.1798 79.881 40.5948 79.6436L49.4638 74.5673C50.0261 74.2456 50.2211 73.5291 49.8983 72.9675C49.5762 72.406 48.8586 72.2119 48.2969 72.5342L39.4274 77.6105C39.3174 77.6733 39.181 77.6733 39.071 77.6105L27.9778 71.261C25.0531 69.5868 22.4517 67.4878 20.2336 65.0684C21.0196 64.8511 21.8215 64.6136 22.6369 64.3591C24.4474 66.1804 26.5109 67.7759 28.7938 69.0826L38.0313 74.3701C38.4072 74.585 38.8284 74.6924 39.2495 74.6924C39.6706 74.6924 40.0918 74.585 40.4671 74.3701L49.7046 69.0826C51.9881 67.7759 54.0516 66.1804 55.8621 64.3585C56.6799 64.6143 57.4837 64.8517 58.2716 65.0696C56.6812 66.8005 54.8927 68.3722 52.9221 69.7424C52.3903 70.1117 52.2595 70.8423 52.6299 71.3733C52.8579 71.7004 53.2228 71.8762 53.5938 71.8762C53.8255 71.8762 54.059 71.8079 54.2631 71.6656C56.7258 69.9536 58.9225 67.9492 60.8271 65.7202C62.659 66.1462 64.3942 66.4606 66.0067 66.6492C67.2071 66.7902 68.3281 66.8597 69.3678 66.8597C73.5884 66.8597 76.4605 65.7086 77.7557 63.4686C80.0417 59.5154 76.9532 53.1378 69.0628 45.4913ZM75.7234 20.2411C76.9489 22.3602 75.4379 26.2524 71.578 30.918C70.8415 31.8085 70.0255 32.7197 69.1392 33.645V18.0206C72.5456 17.981 74.8646 18.7567 75.7234 20.2411ZM6.79874 30.7697C3.03113 26.1725 1.5654 22.3352 2.77563 20.2411C3.63441 18.7567 5.95341 17.981 9.35979 18.0206V22.4866C9.35979 23.1342 9.88484 23.6584 10.5334 23.6584C11.1813 23.6584 11.7069 23.1342 11.7069 22.4866V10.7928C11.7069 10.5957 11.8677 10.4352 12.0651 10.4352H66.4339C66.632 10.4352 66.7927 10.5957 66.7927 10.7928V35.9723C66.0122 36.7102 65.1925 37.4542 64.3356 38.2007V15.8441C64.3356 14.4958 63.2366 13.3984 61.8864 13.3984H16.6132C15.263 13.3984 14.1641 14.4958 14.1641 15.8441V38.1995C13.3077 37.4536 12.4868 36.7102 11.7069 35.9723V27.8265C11.7069 27.1796 11.1813 26.6547 10.5334 26.6547C9.88484 26.6547 9.35979 27.1796 9.35979 27.8265V33.645C8.42339 32.6678 7.56645 31.7065 6.79874 30.7697ZM48.5029 59.1742C51.8292 56.6815 54.1177 52.8809 54.5993 48.5437C57.2117 46.7896 59.689 44.9896 61.9878 43.1812V43.8702C61.9878 50.5188 59.4873 56.842 55.169 61.6742C53.0352 60.965 50.806 60.1294 48.5029 59.1742ZM23.33 61.6742C19.0117 56.8427 16.5112 50.5188 16.5112 43.8702V43.1738C18.7794 44.9622 21.1712 46.7029 23.6118 48.3508C23.7011 48.4106 23.7964 48.4552 23.8936 48.4882C24.3612 52.8485 26.6557 56.6705 29.9961 59.1742C27.6936 60.13 25.4645 60.965 23.33 61.6742ZM26.1521 46.8335C26.1521 42.7808 30.773 33.7506 38.5136 22.6776C38.6841 22.4341 38.9524 22.2943 39.2495 22.2943C39.5466 22.2943 39.8149 22.4341 39.9854 22.6776C47.726 33.7506 52.3469 42.7808 52.3469 46.8335C52.3469 54.0454 46.4718 59.9127 39.2495 59.9127C32.0272 59.9127 26.1521 54.0454 26.1521 46.8335ZM54.617 45.6958C54.2521 42.8333 52.5951 38.7604 49.6765 33.5608C47.0555 28.8898 44.0061 24.3347 41.9102 21.3361C41.3038 20.4688 40.3088 19.9506 39.2495 19.9506C38.1902 19.9506 37.1958 20.4688 36.5894 21.3361C34.4929 24.3347 31.4441 28.8898 28.8225 33.5608C25.9045 38.7604 24.2475 42.8326 23.8826 45.6952C21.2531 43.8812 18.7794 42.0282 16.5112 40.1776V15.8441C16.5112 15.7886 16.557 15.7428 16.6132 15.7428H61.8864C61.9426 15.7428 61.9885 15.7886 61.9885 15.8441V40.1782C59.7202 42.0282 57.2465 43.8818 54.617 45.6958ZM12.1745 64.3268C7.20399 64.903 3.86546 64.1821 2.77563 62.2968C1.26101 59.6771 3.92536 54.4714 9.76382 48.476C10.6183 54.0063 12.8028 59.2181 16.065 63.6774C14.7007 63.9655 13.3988 64.1852 12.1745 64.3268ZM18.5606 63.0914C14.1964 57.4945 11.7069 50.5188 11.7069 43.2202V39.1449C12.5003 39.856 13.3212 40.5652 14.1641 41.2695V43.8702C14.1641 50.7428 16.62 57.2968 20.8955 62.4414C20.1009 62.6776 19.3222 62.8943 18.5606 63.0914ZM48.5377 67.0496L39.3002 72.3364C39.2691 72.3547 39.2306 72.3547 39.1988 72.3364L29.9613 67.0496C28.2138 66.0492 26.6068 64.8633 25.157 63.5278C27.4992 62.7161 29.9399 61.7664 32.4545 60.6812C34.5064 61.6888 36.8125 62.2565 39.2501 62.2565C41.6871 62.2565 43.9939 61.6888 46.0464 60.6805C48.5604 61.7658 51.0004 62.7161 53.3426 63.5278C51.8922 64.8633 50.2859 66.0492 48.5377 67.0496ZM57.6041 62.4414C61.879 57.2961 64.3356 50.7428 64.3356 43.8702V41.2799C65.1852 40.5707 66.0048 39.8621 66.7927 39.1565V43.2202C66.7927 50.5084 64.3264 57.4841 59.9488 63.0933C59.1835 62.8961 58.4018 62.6782 57.6041 62.4414ZM75.7234 62.2968C74.6299 64.1882 71.2761 64.9072 66.2805 64.3219C65.0727 64.1803 63.7897 63.963 62.4463 63.6798C65.7151 59.2133 67.888 54.0021 68.7376 48.4784C74.5743 54.4727 77.238 59.6771 75.7234 62.2968Z" fill="#FF8B00"/>
<path d="M29.3531 19.8688H20.5447C19.8968 19.8688 19.3711 20.3937 19.3711 21.0407C19.3711 21.6882 19.8968 22.2125 20.5447 22.2125H29.3531C30.001 22.2125 30.5267 21.6882 30.5267 21.0407C30.5267 20.3937 30.001 19.8688 29.3531 19.8688Z" fill="#FF8B00"/>
<path d="M26.289 24.5386H20.5447C19.8968 24.5386 19.3711 25.0629 19.3711 25.7105C19.3711 26.358 19.8968 26.8823 20.5447 26.8823H26.289C26.9375 26.8823 27.4626 26.358 27.4626 25.7105C27.4626 25.0629 26.9375 24.5386 26.289 24.5386Z" fill="#FF8B00"/>
<path d="M23.2255 29.2084H20.5453C19.8968 29.2084 19.3711 29.7327 19.3711 30.3802C19.3711 31.0272 19.8968 31.5521 20.5453 31.5521H23.2255C23.8734 31.5521 24.3991 31.0272 24.3991 30.3802C24.3991 29.7327 23.8734 29.2084 23.2255 29.2084Z" fill="#FF8B00"/>
<path d="M57.9544 19.8688H49.146C48.4981 19.8688 47.9724 20.3937 47.9724 21.0407C47.9724 21.6882 48.4981 22.2125 49.146 22.2125H57.9544C58.6023 22.2125 59.1279 21.6882 59.1279 21.0407C59.1279 20.3937 58.6029 19.8688 57.9544 19.8688Z" fill="#FF8B00"/>
<path d="M57.9544 24.5386H52.2101C51.5622 24.5386 51.0365 25.0629 51.0365 25.7105C51.0365 26.358 51.5622 26.8823 52.2101 26.8823H57.9544C58.6023 26.8823 59.128 26.358 59.128 25.7105C59.128 25.0629 58.6029 24.5386 57.9544 24.5386Z" fill="#FF8B00"/>
<path d="M57.9543 29.2084H55.2741C54.6256 29.2084 54.0999 29.7327 54.0999 30.3802C54.0999 31.0272 54.6256 31.5521 55.2741 31.5521H57.9543C58.6022 31.5521 59.1279 31.0272 59.1279 30.3802C59.1279 29.7327 58.6029 29.2084 57.9543 29.2084Z" fill="#FF8B00"/>
</svg>
