<svg width="80" height="80" viewBox="0 0 80 80" fill="none" xmlns="http://www.w3.org/2000/svg">
<path d="M67.5535 18.9703C70.3806 17.1277 72.2581 13.9419 72.2581 10.3226C72.2581 4.63097 67.6271 0 61.9355 0C57.1922 0 53.1961 3.22065 51.9922 7.5871L44.4052 0H28.3871V2.58065H43.3368L51.6413 10.8852C51.8258 14.2697 53.6374 17.2232 56.3174 18.9703C49.1006 21.3394 43.871 28.1303 43.871 36.129V45.1613C43.871 48.7187 46.7651 51.6129 50.3226 51.6129H51.6129V74.1935C51.6129 77.3948 54.2181 80 57.4193 80C59.2529 80 60.871 79.129 61.9355 77.7987C63 79.129 64.6181 80 66.4516 80C69.6529 80 72.2581 77.3948 72.2581 74.1935V51.6129H73.5484C77.1058 51.6129 80 48.7187 80 45.1613V36.129C80 28.1303 74.7703 21.3394 67.5535 18.9703ZM54.1935 10.3226C54.1935 6.0529 57.6658 2.58065 61.9355 2.58065C66.2051 2.58065 69.6774 6.0529 69.6774 10.3226C69.6774 14.5923 66.2051 18.0645 61.9355 18.0645C57.6658 18.0645 54.1935 14.5923 54.1935 10.3226ZM77.4193 45.1613C77.4193 47.2955 75.6826 49.0323 73.5484 49.0323H72.2581V29.6774H69.6774V74.1935C69.6774 75.9716 68.231 77.4193 66.4516 77.4193C64.6722 77.4193 63.2258 75.9716 63.2258 74.1935V42.5806H60.6451V74.1935C60.6451 75.9716 59.1987 77.4193 57.4193 77.4193C55.64 77.4193 54.1935 75.9716 54.1935 74.1935V29.6774H51.6129V49.0323H50.3226C48.1884 49.0323 46.4516 47.2955 46.4516 45.1613V36.129C46.4516 27.591 53.3974 20.6452 61.9355 20.6452C70.4735 20.6452 77.4193 27.591 77.4193 36.129V45.1613Z" fill="#FF8B00"/>
<path d="M20.6452 63.982V51.613C23.4916 51.613 25.8064 49.2981 25.8064 46.4517V33.5485C25.8064 28.2259 22.5652 23.6465 17.9548 21.6775C20.3548 20.0517 21.9355 17.3046 21.9355 14.1936C21.9355 9.21299 17.8826 5.16138 12.9032 5.16138C7.92387 5.16138 3.87097 9.21299 3.87097 14.1936C3.87097 17.3046 5.45161 20.0517 7.85161 21.6775C3.24129 23.6465 0 28.2259 0 33.5485V46.4517C0 49.2981 2.31484 51.613 5.16129 51.613V75.484C5.16129 77.9743 7.1871 80.0001 9.67742 80.0001C10.9419 80.0001 12.0826 79.4749 12.9032 78.6349C13.7239 79.4749 14.8645 80.0001 16.129 80.0001C18.6194 80.0001 20.6452 77.9743 20.6452 75.484V67.6311L28.9213 59.3549H43.871V56.7743H27.8529L20.6452 63.982ZM6.45161 14.1936C6.45161 10.6362 9.34581 7.74202 12.9032 7.74202C16.4606 7.74202 19.3548 10.6362 19.3548 14.1936C19.3548 17.7511 16.4606 20.6452 12.9032 20.6452C9.34581 20.6452 6.45161 17.7511 6.45161 14.1936ZM18.0645 75.484C18.0645 76.5511 17.1961 77.4194 16.129 77.4194C15.0619 77.4194 14.1935 76.5511 14.1935 75.484V42.5807H11.6129V75.484C11.6129 76.5511 10.7445 77.4194 9.67742 77.4194C8.61032 77.4194 7.74194 76.5511 7.74194 75.484V32.2582H5.16129V49.0323C3.73806 49.0323 2.58065 47.8749 2.58065 46.4517V33.5485C2.58065 27.8569 7.21161 23.2259 12.9032 23.2259C18.5948 23.2259 23.2258 27.8569 23.2258 33.5485V46.4517C23.2258 47.8749 22.0684 49.0323 20.6452 49.0323V32.2582H18.0645V75.484Z" fill="#FF8B00"/>
<path d="M41.2903 61.9355H43.871V64.5162H41.2903V61.9355Z" fill="#FF8B00"/>
<path d="M28.3871 61.9355H38.7097V64.5162H28.3871V61.9355Z" fill="#FF8B00"/>
<path d="M28.3871 5.16138H38.7097V7.74202H28.3871V5.16138Z" fill="#FF8B00"/>
<path d="M41.2903 5.16138H43.871V7.74202H41.2903V5.16138Z" fill="#FF8B00"/>
</svg>
