<svg width="73" height="80" viewBox="0 0 73 80" fill="none" xmlns="http://www.w3.org/2000/svg">
<path d="M49.7465 43.9152L41.9893 30.9115C41.9893 30.9115 41.9893 30.8942 41.972 30.8942C41.4352 30.0284 41.1755 29.0414 41.1755 27.8294C41.1755 24.4529 40.708 21.0938 39.7556 17.8731C38.2665 12.9383 35.7039 8.93851 32.137 5.97761C25.2109 0.228976 14.7872 -1.38134 1.1428 1.18131C0.484825 1.30252 0 1.87392 0 2.54921V78.5975C0.0173152 79.3766 0.640662 79.9827 1.41984 80H20.934C21.7132 80 22.3366 79.3766 22.3539 78.5975V74.3552C22.3539 73.2471 23.1158 72.2774 24.1893 72.0004C24.9858 71.7926 25.9381 71.6541 26.9424 71.4982C32.7776 70.6325 41.5737 69.3338 41.8335 53.0749L48.7076 48.6076C48.7076 48.5729 48.7076 48.573 48.7249 48.5556C50.214 47.5167 50.6642 45.4389 49.7465 43.9152ZM47.1492 46.2873L39.6864 51.1529C39.2881 51.4126 39.063 51.8455 39.063 52.313C39.063 58.8928 37.6951 63.2909 34.8728 65.7669C32.4833 67.8621 29.3146 68.3469 26.5269 68.7451C25.436 68.901 24.4317 69.0568 23.4794 69.2992C21.1765 69.9053 19.5835 71.9658 19.5661 74.3379V77.2123H2.77043V3.69201C15.0642 1.57956 24.2759 3.05135 30.3535 8.09007C33.3663 10.5835 38.4051 16.4706 38.4051 27.8121C38.4051 29.5436 38.8033 31.0154 39.5998 32.3313L47.357 45.335C47.5302 45.664 47.4436 46.0622 47.1492 46.2873Z" fill="#FF8B00"/>
<path d="M24.1719 26.8943C21.4535 26.877 19.2544 29.0587 19.2371 31.7772C19.2198 34.4957 21.4015 36.6947 24.12 36.7121C24.1373 36.7121 24.1546 36.7121 24.1719 36.7121C26.8558 36.7467 29.0548 34.5996 29.0721 31.9157C29.0721 31.8811 29.0721 31.8465 29.0721 31.8119C29.0721 29.0934 26.8904 26.8943 24.1719 26.8943ZM24.2585 33.9416C24.2412 33.9416 24.2066 33.9416 24.1719 33.9416C22.9945 33.9416 22.0422 32.9893 22.0422 31.8119C22.0422 30.6344 22.9945 29.6821 24.1719 29.6821C25.3494 29.6821 26.3017 30.6344 26.3017 31.8119C26.3363 32.972 25.4186 33.9243 24.2585 33.9416Z" fill="#FF8B00"/>
<path d="M49.4694 54.7198C46.9068 54.7198 44.829 56.7977 44.829 59.3603C44.829 61.923 46.9068 64.0008 49.4694 64.0008C52.0321 64.0008 54.1099 61.923 54.1099 59.3603C54.0926 56.7977 52.0321 54.7198 49.4694 54.7198ZM49.4694 61.213C48.4305 61.213 47.5994 60.3819 47.5994 59.343C47.5994 58.3041 48.4305 57.473 49.4694 57.473C50.5084 57.473 51.3395 58.3041 51.3395 59.343C51.3395 60.3819 50.491 61.213 49.4694 61.213Z" fill="#FF8B00"/>
<path d="M67.7023 54.7198C65.1396 54.7198 63.0618 56.7977 63.0618 59.3603C63.0618 61.923 65.1396 64.0008 67.7023 64.0008C70.2649 64.0008 72.3428 61.923 72.3428 59.3603C72.3428 56.7977 70.2649 54.7198 67.7023 54.7198ZM67.7023 61.213C66.6634 61.213 65.8323 60.3819 65.8323 59.343C65.8323 58.3041 66.6634 57.473 67.7023 57.473C68.7412 57.473 69.5723 58.3041 69.5723 59.343C69.5723 60.3819 68.7412 61.213 67.7023 61.213Z" fill="#FF8B00"/>
<path d="M57.8673 61.8537C55.3047 61.8537 53.2268 63.9316 53.2268 66.4942C53.2268 69.0569 55.3047 71.1347 57.8673 71.1347C60.43 71.1347 62.5078 69.0569 62.5078 66.4942C62.5078 63.9316 60.43 61.8537 57.8673 61.8537ZM57.8673 68.3469C56.8284 68.3469 55.9973 67.5158 55.9973 66.4769C55.9973 65.438 56.8284 64.6069 57.8673 64.6069C58.9062 64.6069 59.7373 65.438 59.7373 66.4769C59.7373 67.5158 58.8889 68.3469 57.8673 68.3469Z" fill="#FF8B00"/>
<path d="M67.356 65.6457C64.7933 65.6457 62.7155 67.7236 62.7155 70.2862C62.7155 72.8489 64.7933 74.9267 67.356 74.9267C69.9186 74.9267 71.9965 72.8489 71.9965 70.2862C71.9791 67.7236 69.9013 65.6457 67.356 65.6457ZM67.356 72.1389C66.3171 72.1389 65.4859 71.3078 65.4859 70.2689C65.4859 69.23 66.3171 68.3989 67.356 68.3989C68.3949 68.3989 69.226 69.23 69.226 70.2689C69.2087 71.3078 68.3776 72.1389 67.356 72.1389Z" fill="#FF8B00"/>
<path d="M57.8673 48.3998C55.3047 48.3998 53.2268 50.4776 53.2268 53.0403C53.2268 55.6029 55.3047 57.6807 57.8673 57.6807C60.43 57.6807 62.5078 55.6029 62.5078 53.0403C62.5078 50.4603 60.43 48.3998 57.8673 48.3998ZM57.8673 54.893C56.8284 54.893 55.9973 54.0619 55.9973 53.023C55.9973 51.9841 56.8284 51.1529 57.8673 51.1529C58.9062 51.1529 59.7373 51.9841 59.7373 53.023C59.7373 54.0619 58.8889 54.893 57.8673 54.893Z" fill="#FF8B00"/>
<path d="M67.7023 42.7897C65.1396 42.7897 63.0618 44.8675 63.0618 47.4302C63.0791 49.9928 65.157 52.0533 67.7023 52.0706C70.2649 52.0706 72.3428 49.9928 72.3428 47.4302C72.3428 44.8675 70.2649 42.7897 67.7023 42.7897ZM67.7023 49.3002C66.6634 49.3002 65.8323 48.4691 65.8323 47.4302C65.8496 46.3913 66.6807 45.5601 67.7023 45.5601C68.7412 45.5601 69.5723 46.3913 69.5723 47.4302C69.5723 48.4691 68.7412 49.3002 67.7023 49.3002Z" fill="#FF8B00"/>
</svg>
