<svg width="80" height="80" viewBox="0 0 80 80" fill="none" xmlns="http://www.w3.org/2000/svg">
<path d="M80 13.3445C80 10.9716 78.3923 8.91226 76.0903 8.33806L64.5161 5.44387V0H61.9355V7.45935L75.4645 10.8426C76.6155 11.129 77.4193 12.1587 77.4193 13.3445V24.5161H69.6774V27.0968H71.6439C69.489 32.7174 68.3871 38.6168 68.3871 44.6658V50.3226H59.8658C61.9819 46.9497 63.2258 42.9768 63.2258 38.7097C63.2258 36.5677 62.9006 34.4632 62.2955 32.4323L66.4064 28.3213C67.6839 27.0439 68.3884 25.3445 68.3884 23.5381C68.3871 19.809 65.3523 16.7742 61.6219 16.7742C59.8155 16.7742 58.1161 17.4774 56.8387 18.7561L56.7742 18.8206L56.7097 18.7561C55.431 17.4774 53.7329 16.7742 51.9264 16.7742C50.5484 16.7742 49.2671 17.1935 48.1961 17.9045C45.9729 17.1665 43.6568 16.7742 41.2903 16.7742C40.4155 16.7742 39.5574 16.84 38.7097 16.9394V13.3445C38.7097 12.1587 39.5135 11.129 40.6645 10.8413L54.1935 7.45935V0H51.6129V5.44387L40.0387 8.33806C37.7368 8.91226 36.129 10.9716 36.129 13.3445V17.4129C26.52 19.7432 19.3548 28.3948 19.3548 38.7097C19.3548 43.3045 20.7806 47.5703 23.2052 51.0994L20 54.3045L18.0645 52.369L1.98194 68.4516C0.703226 69.729 0 71.4271 0 73.2361C0 76.9652 3.03484 80 6.76516 80C8.57032 80 10.2697 79.2968 11.5484 78.0194L27.631 61.9355L25.6955 60L28.9006 56.7948C32.4297 59.2194 36.6955 60.6452 41.2903 60.6452C47.9742 60.6452 53.9587 57.6323 57.9845 52.9032H70.9677V44.6658C70.9677 38.6026 72.1381 32.6981 74.4219 27.0968H80V13.3445ZM51.9264 19.3548C53.0439 19.3548 54.0942 19.7897 54.8852 20.5806L56.7742 22.4697L58.6632 20.5806C59.4542 19.791 60.5045 19.3548 61.6219 19.3548C63.929 19.3548 65.8064 21.2323 65.8064 23.5394C65.8064 24.6568 65.3716 25.7071 64.5806 26.4981L56.7742 34.3045L48.9677 26.4981C48.1768 25.7071 47.7419 24.6568 47.7419 23.5394C47.7419 21.2323 49.6194 19.3548 51.9264 19.3548ZM45.3677 25.1239C45.6555 26.3226 46.2477 27.4284 47.1419 28.3226L55.2955 36.4761C55.3445 36.7897 55.3948 37.1019 55.4232 37.4194H47.1406L43.6219 32.1406L39.3897 42.0142L35.2181 30.889L30.3226 37.4194H27.1626C27.8168 30.1961 33.8994 24.5161 41.2903 24.5161C42.6852 24.5161 44.0503 24.7277 45.3677 25.1239ZM31.6129 40L34.4581 36.2077L37.8155 45.1613H40.8503L44.1187 37.5368L45.7613 40H55.4181C54.7639 47.2232 48.6813 52.9032 41.2903 52.9032C33.8994 52.9032 27.8168 47.2232 27.1626 40H31.6129ZM9.72387 76.1935C8.9329 76.9845 7.88129 77.4193 6.76516 77.4193C4.45806 77.4193 2.58065 75.5432 2.58065 73.2361C2.58065 72.1174 3.01548 71.0671 3.80645 70.2774L14.1935 59.889L20.111 65.8064L9.72387 76.1935ZM21.9355 63.9819L16.0181 58.0645L18.0645 56.0181L23.9819 61.9355L21.9355 63.9819ZM23.871 58.1755L21.8245 56.129L24.8116 53.1419C25.449 53.8684 26.1316 54.551 26.8581 55.1884L23.871 58.1755ZM41.2903 58.0645C30.6181 58.0645 21.9355 49.3819 21.9355 38.7097C21.9355 28.0374 30.6181 19.3548 41.2903 19.3548C42.96 19.3548 44.6013 19.5716 46.1948 19.9871C45.7394 20.7187 45.4232 21.5394 45.2748 22.4219C43.9768 22.1045 42.6439 21.9355 41.2903 21.9355C32.0413 21.9355 24.5161 29.4606 24.5161 38.7097C24.5161 47.9587 32.0413 55.4839 41.2903 55.4839C50.5394 55.4839 58.0645 47.9587 58.0645 38.7097C58.0645 38.0658 58.0155 37.4245 57.9419 36.7858L60.1819 34.5458C60.48 35.9071 60.6452 37.2981 60.6452 38.7097C60.6452 49.3819 51.9626 58.0645 41.2903 58.0645Z" fill="#FF8B00"/>
</svg>
