<svg width="40" height="40" viewBox="0 0 40 40" fill="none" xmlns="http://www.w3.org/2000/svg"><path d="M37.236 2.766c-3.687-3.688-9.688-3.687-13.377 0L17.17 9.454a1.455 1.455 0 1 0 2.058 2.058l6.689-6.688a6.504 6.504 0 0 1 4.63-1.908c1.756 0 3.4.678 4.63 1.908a6.501 6.501 0 0 1 1.91 4.631c0 1.755-.679 3.4-1.91 4.63l-8.745 8.748a6.559 6.559 0 0 1-9.262 0 1.455 1.455 0 1 0-2.058 2.058 9.43 9.43 0 0 0 6.689 2.766 9.43 9.43 0 0 0 6.688-2.766l8.747-8.747a9.39 9.39 0 0 0 2.762-6.689c0-2.534-.981-4.909-2.762-6.69z" fill="#fff"/><path d="M19.743 29.52l-5.66 5.66a6.502 6.502 0 0 1-4.63 1.91c-1.756 0-3.401-.68-4.632-1.91a6.557 6.557 0 0 1 0-9.261l8.233-8.233a6.503 6.503 0 0 1 4.631-1.908c1.755 0 3.4.678 4.63 1.908a1.455 1.455 0 1 0 2.058-2.058c-3.687-3.687-9.688-3.687-13.377 0l-8.233 8.234a9.393 9.393 0 0 0-2.76 6.688 9.39 9.39 0 0 0 2.76 6.688A9.39 9.39 0 0 0 9.453 40c2.533 0 4.908-.981 6.688-2.762l5.66-5.66a1.455 1.455 0 0 0-2.057-2.057z" fill="#fff"/></svg>