<svg width="161" height="31" viewBox="0 0 161 31" fill="none" xmlns="http://www.w3.org/2000/svg"><path d="M135 13.5a12.496 12.496 0 0 1 7.716-11.548 12.503 12.503 0 0 1 13.623 2.71 12.495 12.495 0 0 1 2.709 13.622A12.501 12.501 0 0 1 147.5 26 12.5 12.5 0 0 1 135 13.5z" stroke="#fff" stroke-miterlimit="10"/><path d="M148 14H15.904L2 29" stroke="#fff" stroke-miterlimit="10"/><path d="M.522 27.65a2.003 2.003 0 0 0 1.572 3.348 2 2 0 0 0 1.847-2.483 2.002 2.002 0 0 0-.596-.998 2.008 2.008 0 0 0-2.823.133z" fill="#fff"/><path d="M142 13.51a5.498 5.498 0 0 1 9.399-3.889 5.496 5.496 0 0 1-.87 8.47 5.504 5.504 0 0 1-6.928-.712 5.502 5.502 0 0 1-1.601-3.87z" fill="#FF8B00"/></svg>